<svg width="1024" height="1024" viewBox="0 0 1024 1024" fill="none" xmlns="http://www.w3.org/2000/svg">
<path d="M331.676 567.16C333.222 567.154 335.12 567.663 336.536 568.278C368.394 582.126 400.255 596.057 431.957 610.261C433.403 610.909 438.678 613.656 439.135 614.925C439.757 616.66 440.535 621.531 440.664 623.343C443.288 660.592 445.6 697.868 448.221 735.118C448.478 738.76 448.771 742.74 448.261 746.351C448.062 747.706 445.333 750.994 444.59 752.243C424.185 778.571 403.935 805.039 383.245 831.139C381.674 833.121 379.533 834.333 377.33 835.467C369.435 834.614 356.055 829.401 348.242 826.678L302.702 811.336C290.83 807.398 278.841 803.459 267.045 799.325C262.484 797.512 260.888 797.379 259.007 792.714C256.269 785.923 254.688 778.89 252.671 771.864L240.457 728.733L228.362 686.098C227.143 681.885 219.095 658.296 221.954 654.975C228.093 647.849 238.619 640.245 246.109 634.232L279.521 607.312C294.488 595.241 309.491 582.899 324.631 571.04C327.072 569.129 328.804 568.253 331.676 567.16ZM346.521 597.165C342.604 595.447 337.976 593.087 333.647 593.778C327.977 596.61 321.859 602.057 316.801 606.133L295.516 623.308L267.297 646.111C262.59 649.909 257.719 653.667 253.119 657.573C251.574 658.884 248.182 662.179 247.473 664.075C246.849 665.744 246.754 667.668 247.173 669.412C248.795 676.18 250.954 682.989 252.858 689.692C256.473 702.779 260.172 715.846 263.958 728.885L272.271 758.407C273.563 762.926 276.553 774.255 278.882 777.785C281.175 781.259 301.15 787.064 305.558 788.546L346.189 802.194C349.947 803.467 353.849 804.816 357.561 806.094C365.993 808.995 370.763 810.84 376.853 802.821C392.636 782.034 409.492 761.682 424.599 740.44C426.49 737.78 424.289 715.99 423.998 711.87L421.432 674.261L419.802 649.213C419.485 644.293 419.699 631.343 415.654 628.506C410.514 624.905 403.326 622.196 397.487 619.643L372.571 608.737C363.873 604.919 355.222 600.979 346.521 597.165Z" fill="#F3A142"/>
<path d="M409.993 235.052C416.467 234.304 426.781 241.747 432.649 245.09C443.247 251.023 453.796 257.046 464.292 263.158C479.371 271.756 494.547 280.191 509.535 288.937C513.103 291.02 518.664 295.62 516.628 300.419C511.773 311.865 505.46 323.06 499.732 334.14L484.452 363.706C482.054 368.353 474.979 383.936 470.705 386.427C467.787 388.129 458.651 391.509 455.025 392.977L421.924 406.388L374.469 425.669C366.079 429.098 357.413 432.748 348.909 435.922C346.47 436.833 345.192 436.614 342.765 435.911C319.598 426.271 296.114 415.735 273.048 405.7L251.952 396.549C247.082 394.433 242.571 392.541 237.919 389.943C233.417 387.974 233.833 381.528 234.734 377.17C241.111 346.357 247.603 315.505 254.194 284.732C255.564 278.339 257.8 276.966 263.911 275.159C271.458 272.929 279.162 270.97 286.765 268.864L337.021 254.995L383.872 242.113C392.315 239.788 401.514 236.91 409.993 235.052ZM415.84 261.564C412.712 259.792 409.808 258.848 406.195 259.37L330.126 280.392L300.153 288.619C293.894 290.32 280.305 293.293 275.826 296.814C272.926 302.58 271.327 312.366 270.059 318.878C267.029 334.443 263.428 349.974 260.303 365.504C258.675 373.58 262.497 376.66 269.312 379.475C293.659 389.874 317.857 400.685 342.237 410.991C344.361 411.549 346.477 412.128 348.628 411.395C355.745 408.971 363.063 405.857 370.011 403.027L409.702 386.901L437.637 375.543C444.667 372.727 455.928 369.738 459.361 362.839C468.204 345.06 478.576 327.391 486.498 309.224C488.212 305.293 484.063 300.153 480.844 298.601C459.22 286.246 437.513 273.846 415.84 261.564Z" fill="#F3A142"/>
<path d="M231.957 406.196C236.56 405.952 247.051 410.851 251.674 412.697L283.699 425.534L314.425 437.893C320.739 440.394 327.231 442.809 333.314 445.557C338.963 448.108 339.551 450.697 339.321 456.305C339.029 463.421 338.375 470.847 337.852 477.907L335.326 513.247L333.604 537.828C333.258 542.868 333.037 549.06 332.141 553.922C328.054 558.851 321.231 563.979 316.103 568.128L294.403 585.671L263.266 610.891C256.791 616.137 245.34 626.376 238.102 629.52C233.458 628.526 229.177 627.209 224.63 625.865C220.572 625.012 214.489 623.096 210.306 621.935L180.884 613.709L149.52 604.903C121.052 597.007 123.326 601.946 120.899 572.671L118.177 539.79L114.871 502.274C114.402 496.987 112.747 482.752 113.511 478.183C117.084 473.07 131.851 465.22 137.88 461.596L181.549 435.608L212.853 416.903C218.104 413.779 226.658 408.355 231.957 406.196ZM234.086 431.369C228.533 433.445 221.879 437.794 216.612 440.939L192.809 455.164L160.272 474.505C154.227 478.094 140.748 484.965 137.329 490.444C136.763 495.392 137.688 503.634 138.137 508.885L140.326 534.006C141.421 546.467 141.765 559.379 143.55 571.724C143.85 573.8 144.327 576.823 145.704 578.434C150.695 584.269 208.668 597.118 221.45 601.73C225.07 602.751 232.665 605.426 235.679 603.421C245.676 596.769 256.282 587.395 265.64 579.843L292.06 558.554C297.015 554.55 302.012 550.543 306.811 546.338C311.37 542.773 311.135 534.908 311.522 529.33C312.917 509.21 314.643 488.975 315.613 468.823C316.004 460.682 302.829 457.436 296.651 455L275.435 446.531L252.263 437.202C247.879 435.441 238.405 431.136 234.086 431.369Z" fill="#87C664"/>
<path d="M464.825 397.802C467.542 397.568 469.254 398.067 471.642 399.391C491.582 410.35 511.006 423.36 530.747 434.597C552.995 447.263 549.368 447.054 542.623 469.647C539.077 481.445 535.46 493.221 531.772 504.975C528.511 515.622 525.54 527.95 521.175 538.164C520.425 539.915 517.292 542.246 515.644 543.217C504.124 550.005 490.374 558.417 478.855 564.754C469.375 569.969 441.135 588.684 432.21 591.233C430.34 590.666 428.588 589.912 426.779 589.18C413.201 583.265 400.034 576.598 386.55 570.531C377.787 566.627 369.069 562.62 360.399 558.514C354.702 555.835 345.474 552.498 341.898 547.432C341.236 537.289 347.332 454.571 349.82 448.355C353.755 444.158 377.881 434.745 384.242 432.031L424.017 414.9C435.83 409.904 452.735 401.725 464.825 397.802ZM470.729 423.195C467.905 421.349 464.442 419.966 461.051 420.363C449.692 424.311 432.992 432.284 421.391 437.224L393.982 448.955C389.236 450.992 384.237 452.801 379.659 455.186C377.646 456.235 373.977 458.139 373.065 460.279C371.667 463.562 366.894 518.626 366.861 525.68C366.85 527.835 367.032 530.1 367.971 532.073C368.803 533.823 370.738 535.004 372.354 535.963C380.341 540.704 389.41 544.194 397.869 548.068C408.151 552.78 418.26 557.83 428.593 562.431C432.864 563.845 434.194 563.627 438.204 561.455C446.091 557.186 453.839 552.547 461.68 548.174C469.506 543.822 477.289 539.396 485.03 534.896C489.466 532.362 500.986 526.738 502.626 522.072C509.217 503.333 514.553 483.667 520.344 464.632C521.992 459.211 520.777 454.74 515.939 451.921C500.987 442.15 485.677 432.978 470.729 423.195Z" fill="#1F4AC8"/>
<path d="M641.542 299.335C645.68 298.783 649.072 299.879 652.354 302.45C669.727 316.061 687.083 329.647 704.457 343.272C709.489 347.35 713.785 352.303 707.955 359.769C696.567 374.346 677.28 403.076 664.951 415.214C663.854 416.291 633.96 423.211 630.854 423.965L590.388 433.696C585.059 434.995 562.281 441.396 557.914 440.149C553.994 438.556 549.778 435.711 546.18 433.447C528.443 422.286 510.476 411.359 492.73 400.221C483.602 394.491 485.944 389.159 489.867 381.031C497.509 364.954 506.281 348.759 513.751 332.687C522.381 314.126 522.084 315.692 541.442 313.034L567.04 309.54C591.154 306.236 617.544 301.985 641.542 299.335ZM638.545 323.926C635.497 321.794 630.947 318.784 627.135 319.228C600.306 322.227 571.998 326.654 545.285 330.792C539.54 331.683 535.736 342.116 533.231 346.582C528.171 356.977 521.964 366.767 517.145 377.243C514.339 383.342 516.13 388.014 521.867 391.571C534.942 399.677 548.335 407.774 561.529 415.735C563.73 417.062 566.217 418.329 568.701 419.003C576.239 419.02 597.358 413.589 606.265 411.949C618.946 409.323 631.746 407.057 644.342 404.067C646.654 403.354 649.491 402.492 651.071 400.594C659.248 390.76 665.379 379.411 673.14 369.182C677.456 363.452 683.011 354.885 675.238 349.234C663.222 340.501 650.721 332.442 638.545 323.926Z" fill="#87C664"/>
<path d="M646.868 428.842C649.267 428.943 651.554 430.382 653.528 431.643C659.311 435.338 664.574 440.204 670.032 444.388C676.998 449.728 689.457 457.74 694.962 464.049C696.403 465.701 696.923 466.684 696.682 468.913C696.446 471.086 695.768 473.161 694.923 475.166C692.077 481.914 670.458 525.464 666.896 527.906C661.911 531.324 648.138 535.874 641.91 538.412L614.068 549.725C609.188 551.695 598.225 556.923 593.317 556.26C588.483 554.246 583.352 550.116 579.076 546.949C567.903 538.657 556.335 530.649 545.323 522.168C540.646 518.565 540.335 515.927 542.091 510.327C546.973 494.768 552.566 479.468 557.757 463.986C558.932 460.481 561.335 452.009 565.101 450.334C575.069 447.066 585.504 444.458 595.703 441.937C612.547 437.773 629.351 432.695 646.247 428.832C646.455 428.835 646.661 428.834 646.868 428.842ZM649.24 454.936C645.939 451.409 640.239 447.745 635.077 448.296C625.074 450.379 615.143 452.967 605.212 455.371C599.356 456.789 592.791 457.845 587.228 460.114C585.525 460.809 584.312 461.368 583.257 462.939C579.815 468.066 567.332 503.76 568.264 508.699C568.627 510.623 570.647 512.643 572.063 513.957C576.524 518.096 582.056 521.561 586.986 525.129C591.81 528.621 596.597 532.511 601.693 535.565C602.615 536.118 603.599 536.56 604.594 536.959C614.985 536.215 630.733 526.251 640.92 523.002C651.648 519.583 654.087 513.278 658.638 503.89C662.444 496.425 666.017 489.351 669.897 481.337C675.975 468.783 656.269 462.446 649.24 454.936Z" fill="#FACE4B"/>
<path d="M615.822 209.104C619.528 208.756 623.717 211.161 626.747 213.174C640.543 222.336 655.036 230.396 668.626 239.843C675.495 244.616 675.32 250.56 670.145 256.737C663.455 263.854 656.856 271.067 650.287 278.299C645.164 283.938 641.577 288.518 633.534 289.401C610.58 291.921 587.669 295.17 564.697 297.461C562.381 297.594 558.336 298.009 556.285 296.9C541.143 288.711 526.08 279.893 511.422 270.871C505.655 267.224 503.866 262.592 507.848 256.558C511.434 251.128 533.321 218.184 537.373 217.698C563.261 214.593 590.052 210.885 615.822 209.104ZM629.677 238.958C617.429 231.734 619.628 224.814 602.823 226.385L580.953 228.803C572.594 229.647 563.579 229.882 555.553 232.246C553.806 232.761 550.868 235.793 549.739 237.354C542.911 246.797 531.188 256.313 546.042 265.395C552.426 269.298 559.234 274.269 566.434 276.637C568.04 277.131 573.087 276.65 574.827 276.507C583.045 275.805 617.71 274.376 622.366 271.45C634.335 263.923 648.545 250.086 629.677 238.958Z" fill="#1F4AC8"/>
<path d="M786.277 373.205C791.968 373.04 798.11 372.793 803.723 373.595C809.41 377.744 816.964 386.376 822.229 391.476C827.028 396.449 832.142 401.219 836.659 406.445C840.382 410.756 841.155 414.73 836.984 419.321C833.52 423.137 830.008 426.421 825.965 430.157C818.306 437.234 810.95 446.518 802.128 452.212C795.596 454.4 781.56 455.42 774.481 456.268L733.677 461.289C729.178 461.858 725.39 462.357 720.849 462.545C716.028 459.804 682.004 429.524 679.944 424.809C679.885 422.485 680.719 419.877 681.894 417.895C685.521 411.776 690.396 405.823 694.662 400.025C699.834 392.995 705.08 385.541 710.675 378.898C711.535 377.88 714.245 375.355 715.332 375.215C721.857 374.37 730.531 374.418 737.009 374.279C753.433 374.01 769.857 373.652 786.277 373.205ZM786.845 388.814C781.633 388.502 776.918 388.618 771.703 388.711C764.003 388.841 755.873 388.913 748.237 389.116C743.125 389.59 732.317 387.973 728.893 392.62C724.571 398.487 710.949 414.625 709.773 420.368C708.8 425.131 730.436 443.353 734.909 446.278C739.019 446.183 741.914 445.734 745.95 445.146C753.245 443.99 760.801 442.844 767.924 441.644C776.301 440.184 786.868 439.745 792.274 432.18C795.349 427.877 810.028 417.628 808.323 412.422C806.433 406.647 791.906 392.3 786.845 388.814Z" fill="#F3A142"/>
<path d="M750.849 297.519C757.006 296.874 824.311 299.249 829.235 300.578C833.532 301.739 861.182 325.66 865.475 329.877C867.028 331.401 868.445 333.034 869.503 334.947C870.176 336.165 870.661 337.318 870.156 338.67C868.356 343.483 840.468 363.144 834.772 365.429C829.457 366.778 808.801 367.403 802.55 367.629C789.811 368.092 774.334 369.592 761.804 369.234C761.408 368.975 761.018 368.704 760.637 368.425C753.554 363.347 746.959 357.363 740.188 351.868C734.395 347.166 727.814 342.627 722.63 337.301C721.217 335.851 718.882 333.202 718.891 331.096C718.915 326.046 745.489 301.435 750.849 297.519ZM767.938 311.513C762.511 314.862 748.003 328.717 753.794 335.232C757.978 339.939 766.378 350.187 771.521 353.505C777.674 354.012 786.244 353.373 792.555 353.027L819.921 351.496C825.632 350.565 831.645 346.068 835.056 341.427C836.416 339.577 837.463 337.227 837.077 334.877C836.371 330.567 824.083 318.795 820.175 316.395C816.138 313.916 774.993 311.279 767.938 311.513Z" fill="#4C9CF7"/>
<path d="M737.825 222.727C755.663 223.351 785.386 226.564 803.704 228.628C806.515 228.945 839.434 255.968 835.589 260.744C831.577 265.729 813.97 277.976 807.038 280.776C801.962 281.707 748.215 280.77 744.106 279.396C739.463 277.844 712.073 255.784 710.03 251.453C709.63 250.606 709.921 249.395 710.246 248.561C712.313 243.245 732.504 224.909 737.825 222.727ZM788.985 243.125C781.786 242.081 763.497 239.58 756.946 239.936C737.791 245.722 739.439 252.497 756.754 264.065C759.022 265.579 784.378 265.304 789.006 265.073C794.355 263.748 805.029 261.013 800.789 254.182C798.606 250.665 793.43 244.472 788.985 243.125Z" fill="#FACE4B"/>
<path d="M812.105 188.546C814.678 188.341 825.129 190.336 829.329 191.117C843.166 193.862 866.467 195.447 878.911 200.197C882.039 201.391 907.259 225.88 910 228.974C904.315 233.092 891.446 238.163 884.504 241.289L881.111 242.583C868.998 240.653 856.141 238.237 844.145 236.197C839.23 235.361 820.578 232.519 817.498 230.637C810.138 226.139 794.113 211.585 788.383 205.263C792.78 200.836 806.223 192.394 812.105 188.546Z" fill="#F3A142"/>
<path d="M766.254 469.065C768.735 468.832 770.834 468.685 773.209 470.401C777.983 473.516 791.49 484.11 792.55 489.549C793.701 495.982 775.981 516.647 771.621 519.263C766.426 522.382 742.009 526.371 735.247 527.755C730.948 528.486 729.252 527.879 725.605 525.45C720.888 522.159 710.072 513.618 709.03 508.313C708.117 503.658 723.898 477.82 727.325 476.71C739.112 472.892 753.922 471.129 766.254 469.065Z" fill="#4C9CF7"/>
</svg>
