<svg width="1024" height="1024" viewBox="0 0 1024 1024" fill="none" xmlns="http://www.w3.org/2000/svg">
<path d="M331.676 567.162C333.222 567.156 335.12 567.665 336.536 568.28C368.394 582.128 400.255 596.059 431.957 610.263C433.403 610.911 438.678 613.658 439.135 614.927C439.757 616.662 440.535 621.533 440.664 623.345C443.288 660.594 445.6 697.869 448.221 735.12C448.478 738.762 448.771 742.742 448.261 746.353C448.062 747.708 445.333 750.996 444.59 752.245C424.185 778.573 403.935 805.041 383.245 831.141C381.674 833.123 379.533 834.335 377.33 835.469C369.435 834.616 356.055 829.403 348.242 826.68L302.702 811.338C290.83 807.4 278.841 803.461 267.045 799.327C262.484 797.514 260.888 797.381 259.007 792.716C256.269 785.925 254.688 778.892 252.671 771.866L240.457 728.735L228.362 686.1C227.143 681.886 219.095 658.297 221.954 654.977C228.093 647.851 238.619 640.247 246.109 634.233L279.521 607.314C294.488 595.243 309.491 582.901 324.631 571.042C327.072 569.131 328.804 568.255 331.676 567.162ZM346.521 597.167C342.604 595.449 337.976 593.089 333.647 593.78C327.977 596.612 321.859 602.059 316.801 606.135L295.516 623.31L267.297 646.113C262.59 649.911 257.719 653.669 253.119 657.575C251.574 658.886 248.182 662.181 247.473 664.077C246.849 665.746 246.754 667.67 247.173 669.414C248.795 676.182 250.954 682.991 252.858 689.694C256.473 702.781 260.172 715.848 263.958 728.887L272.271 758.409C273.563 762.928 276.553 774.257 278.882 777.787C281.175 781.261 301.15 787.066 305.558 788.548L346.189 802.196C349.947 803.469 353.849 804.818 357.561 806.096C365.993 808.997 370.763 810.842 376.853 802.823C392.636 782.036 409.492 761.684 424.599 740.441C426.49 737.782 424.289 715.992 423.998 711.872L421.432 674.263L419.802 649.215C419.485 644.295 419.699 631.345 415.654 628.508C410.514 624.907 403.326 622.198 397.487 619.645L372.571 608.739C363.873 604.921 355.222 600.981 346.521 597.167Z" fill="#F3A142"/>
<path d="M409.993 235.052C416.467 234.304 426.78 241.747 432.648 245.09C443.247 251.023 453.796 257.046 464.292 263.158C479.371 271.756 494.547 280.192 509.535 288.938C513.103 291.021 518.664 295.62 516.628 300.419C511.773 311.865 505.46 323.061 499.732 334.141L484.452 363.707C482.054 368.354 474.979 383.936 470.705 386.428C467.787 388.13 458.651 391.509 455.025 392.978L421.924 406.388L374.469 425.67C366.079 429.099 357.413 432.749 348.909 435.923C346.47 436.834 345.192 436.614 342.765 435.911C319.598 426.272 296.114 415.736 273.048 405.701L251.951 396.55C247.081 394.434 242.571 392.541 237.919 389.943C233.417 387.974 233.833 381.528 234.734 377.17C241.111 346.357 247.603 315.506 254.194 284.733C255.564 278.34 257.8 276.967 263.911 275.16C271.458 272.93 279.162 270.971 286.765 268.865L337.021 254.995L383.872 242.114C392.315 239.789 401.514 236.91 409.993 235.052ZM415.84 261.565C412.712 259.793 409.808 258.848 406.195 259.37L330.126 280.393L300.153 288.62C293.894 290.321 280.304 293.293 275.825 296.815C272.926 302.581 271.327 312.366 270.059 318.878C267.029 334.443 263.428 349.975 260.303 365.505C258.676 373.581 262.496 376.66 269.311 379.475C293.658 389.874 317.857 400.686 342.237 410.992C344.361 411.55 346.477 412.129 348.627 411.396C355.745 408.972 363.063 405.857 370.011 403.027L409.702 386.902L437.637 375.543C444.667 372.727 455.929 369.739 459.361 362.839C468.203 345.06 478.575 327.392 486.497 309.225C488.212 305.294 484.063 300.154 480.844 298.602C459.22 286.247 437.513 273.847 415.84 261.565Z" fill="#F3A142"/>
<path d="M231.957 406.194C236.56 405.95 247.051 410.849 251.674 412.695L283.699 425.532L314.425 437.891C320.739 440.393 327.231 442.807 333.314 445.555C338.963 448.106 339.551 450.695 339.321 456.303C339.029 463.419 338.375 470.845 337.852 477.905L335.326 513.245L333.604 537.826C333.258 542.866 333.037 549.058 332.141 553.92C328.054 558.849 321.231 563.977 316.103 568.126L294.403 585.669L263.266 610.889C256.791 616.135 245.34 626.374 238.102 629.518C233.458 628.524 229.177 627.207 224.63 625.863C220.572 625.01 214.489 623.094 210.306 621.933L180.884 613.707L149.52 604.901C121.052 597.005 123.326 601.944 120.899 572.669L118.177 539.788L114.871 502.272C114.402 496.985 112.747 482.75 113.511 478.181C117.084 473.068 131.851 465.218 137.88 461.594L181.549 435.606L212.853 416.901C218.104 413.777 226.658 408.353 231.957 406.194ZM234.086 431.367C228.533 433.443 221.879 437.792 216.612 440.938L192.809 455.162L160.272 474.503C154.227 478.092 140.748 484.963 137.329 490.442C136.763 495.39 137.688 503.632 138.137 508.883L140.326 534.004C141.421 546.465 141.765 559.377 143.55 571.722C143.85 573.798 144.327 576.821 145.704 578.432C150.695 584.267 208.668 597.117 221.45 601.728C225.07 602.749 232.665 605.424 235.679 603.419C245.676 596.767 256.282 587.393 265.64 579.841L292.06 558.552C297.015 554.548 302.012 550.541 306.811 546.336C311.37 542.771 311.135 534.906 311.522 529.328C312.917 509.208 314.643 488.973 315.613 468.821C316.004 460.68 302.829 457.434 296.651 454.998L275.435 446.529L252.263 437.2C247.879 435.439 238.405 431.135 234.086 431.367Z" fill="#87C664"/>
<path d="M464.825 397.802C467.542 397.568 469.254 398.067 471.642 399.391C491.582 410.35 511.006 423.36 530.747 434.597C552.995 447.263 549.368 447.054 542.623 469.647C539.077 481.445 535.46 493.221 531.772 504.975C528.511 515.622 525.54 527.95 521.175 538.164C520.425 539.915 517.292 542.246 515.644 543.217C504.124 550.005 490.374 558.417 478.855 564.754C469.375 569.969 441.135 588.684 432.21 591.233C430.34 590.666 428.588 589.912 426.779 589.18C413.201 583.265 400.034 576.598 386.55 570.531C377.787 566.627 369.069 562.62 360.399 558.514C354.702 555.835 345.474 552.498 341.898 547.432C341.236 537.289 347.332 454.571 349.82 448.355C353.755 444.158 377.881 434.745 384.242 432.031L424.017 414.9C435.83 409.904 452.735 401.725 464.825 397.802ZM470.729 423.195C467.905 421.349 464.442 419.966 461.051 420.363C449.692 424.311 432.992 432.284 421.391 437.224L393.982 448.955C389.236 450.992 384.237 452.801 379.659 455.186C377.646 456.235 373.977 458.139 373.065 460.279C371.667 463.562 366.894 518.626 366.861 525.68C366.85 527.835 367.032 530.1 367.971 532.073C368.803 533.823 370.738 535.004 372.354 535.963C380.341 540.704 389.41 544.194 397.869 548.068C408.151 552.78 418.26 557.83 428.593 562.431C432.864 563.845 434.194 563.627 438.204 561.455C446.091 557.186 453.839 552.547 461.68 548.174C469.506 543.822 477.289 539.396 485.03 534.896C489.466 532.362 500.986 526.738 502.626 522.072C509.217 503.333 514.553 483.667 520.344 464.632C521.992 459.211 520.777 454.74 515.939 451.921C500.987 442.15 485.677 432.978 470.729 423.195Z" fill="#1F4AC8"/>
<path d="M641.543 299.332C645.68 298.781 649.072 299.878 652.354 302.449C669.727 316.06 687.083 329.646 704.457 343.271C709.489 347.349 713.785 352.301 707.954 359.767C696.567 374.344 677.281 403.074 664.952 415.212C663.859 416.288 633.958 423.21 630.854 423.964L590.388 433.695C585.058 434.994 562.28 441.394 557.913 440.147C553.994 438.554 549.778 435.709 546.18 433.445C528.443 422.284 510.476 411.357 492.73 400.219C483.602 394.489 485.944 389.157 489.867 381.03C497.509 364.953 506.28 348.758 513.751 332.686C522.381 314.125 522.084 315.69 541.442 313.032L567.04 309.539C591.155 306.235 617.545 301.983 641.543 299.332ZM638.545 323.924C635.497 321.792 630.947 318.782 627.135 319.226C600.306 322.225 571.998 326.652 545.285 330.789C539.54 331.681 535.736 342.115 533.231 346.58C528.171 356.976 521.965 366.766 517.146 377.242C514.341 383.341 516.131 388.012 521.867 391.569C534.942 399.675 548.335 407.772 561.529 415.733C563.73 417.06 566.218 418.327 568.702 419.002C576.24 419.019 597.358 413.587 606.265 411.947C618.946 409.321 631.746 407.055 644.343 404.065C646.655 403.352 649.492 402.491 651.072 400.593C659.249 390.759 665.38 379.41 673.141 369.181C677.457 363.451 683.012 354.883 675.239 349.232C663.223 340.498 650.721 332.44 638.545 323.924Z" fill="#87C664"/>
<path d="M646.868 428.842C649.267 428.942 651.555 430.382 653.529 431.643C659.311 435.338 664.574 440.204 670.032 444.388C676.998 449.728 689.458 457.74 694.963 464.049C696.404 465.701 696.924 466.684 696.683 468.913C696.447 471.086 695.768 473.161 694.923 475.166C692.076 481.915 670.457 525.465 666.896 527.906C661.91 531.324 648.139 535.874 641.911 538.412L614.068 549.725C609.188 551.695 598.225 556.923 593.317 556.26C588.483 554.246 583.352 550.116 579.077 546.949C567.904 538.656 556.335 530.649 545.323 522.168C540.646 518.565 540.335 515.927 542.091 510.327C546.973 494.768 552.566 479.468 557.758 463.986C558.933 460.481 561.336 452.009 565.102 450.334C575.07 447.066 585.505 444.458 595.704 441.937C612.548 437.773 629.352 432.695 646.248 428.832C646.455 428.835 646.662 428.834 646.868 428.842ZM649.241 454.936C645.94 451.409 640.24 447.745 635.078 448.296C625.075 450.379 615.144 452.967 605.212 455.371C599.357 456.789 592.792 457.845 587.229 460.114C585.526 460.809 584.313 461.368 583.258 462.939C579.816 468.065 567.333 503.76 568.265 508.699C568.628 510.623 570.648 512.643 572.064 513.957C576.525 518.096 582.057 521.561 586.986 525.129C591.81 528.621 596.598 532.511 601.694 535.565C602.616 536.118 603.599 536.56 604.594 536.959C614.985 536.215 630.734 526.251 640.921 523.002C651.648 519.583 654.088 513.278 658.639 503.89C662.445 496.425 666.017 489.351 669.897 481.337C675.975 468.783 656.27 462.446 649.241 454.936Z" fill="#FACE4B"/>
<path d="M615.825 209.102C619.531 208.753 623.72 211.159 626.75 213.172C640.546 222.334 655.039 230.395 668.629 239.842C675.498 244.615 675.323 250.559 670.148 256.736C663.458 263.853 656.859 271.066 650.29 278.298C645.167 283.937 641.581 288.516 633.538 289.399C610.584 291.919 587.672 295.169 564.7 297.46C562.384 297.593 558.34 298.007 556.289 296.898C541.147 288.709 526.084 279.892 511.426 270.87C505.659 267.223 503.87 262.591 507.852 256.557C511.439 251.126 533.324 218.184 537.376 217.697C563.264 214.592 590.055 210.883 615.825 209.102ZM629.68 238.957C617.432 231.733 619.632 224.813 602.827 226.384L580.957 228.803C572.598 229.646 563.582 229.881 555.556 232.245C553.809 232.761 550.872 235.793 549.743 237.353C542.915 246.796 531.191 256.313 546.045 265.394C552.429 269.297 559.237 274.267 566.437 276.636C568.043 277.129 573.091 276.649 574.831 276.506C583.049 275.804 617.714 274.375 622.37 271.449C634.339 263.922 648.548 250.085 629.68 238.957Z" fill="#1F4AC8"/>
<path d="M786.277 373.207C791.968 373.042 798.11 372.795 803.723 373.597C809.41 377.745 816.964 386.378 822.229 391.477C827.028 396.451 832.142 401.221 836.659 406.447C840.382 410.758 841.155 414.732 836.984 419.323C833.52 423.139 830.008 426.423 825.965 430.159C818.306 437.236 810.95 446.52 802.128 452.214C795.596 454.402 781.56 455.422 774.481 456.27L733.677 461.291C729.178 461.86 725.39 462.359 720.849 462.547C716.028 459.806 682.004 429.526 679.944 424.81C679.885 422.487 680.719 419.879 681.894 417.897C685.521 411.778 690.396 405.825 694.662 400.027C699.834 392.997 705.08 385.543 710.675 378.9C711.535 377.882 714.245 375.357 715.332 375.217C721.857 374.372 730.531 374.42 737.009 374.281C753.433 374.012 769.857 373.654 786.277 373.207ZM786.845 388.816C781.633 388.504 776.918 388.62 771.703 388.713C764.003 388.843 755.873 388.915 748.237 389.118C743.125 389.592 732.317 387.975 728.893 392.622C724.571 398.489 710.949 414.627 709.773 420.37C708.8 425.133 730.436 443.355 734.909 446.28C739.019 446.184 741.914 445.736 745.95 445.148C753.245 443.992 760.801 442.846 767.924 441.646C776.301 440.186 786.868 439.747 792.274 432.182C795.349 427.879 810.028 417.63 808.323 412.424C806.433 406.649 791.906 392.302 786.845 388.816Z" fill="#F3A142"/>
<path d="M750.849 297.519C757.006 296.874 824.311 299.248 829.235 300.577C833.531 301.737 861.182 325.66 865.475 329.877C867.027 331.401 868.445 333.033 869.503 334.946C870.176 336.164 870.661 337.318 870.156 338.67C868.356 343.484 840.468 363.144 834.772 365.429C829.457 366.778 808.801 367.403 802.55 367.63C789.811 368.092 774.334 369.591 761.804 369.233C761.408 368.974 761.018 368.703 760.637 368.424C753.554 363.346 746.959 357.362 740.188 351.867C734.395 347.165 727.813 342.627 722.63 337.301C721.217 335.851 718.882 333.202 718.891 331.096C718.914 326.046 745.488 301.436 750.849 297.519ZM767.938 311.513C762.511 314.862 748.004 328.716 753.794 335.231C757.977 339.938 766.378 350.187 771.521 353.505C777.674 354.012 786.244 353.374 792.555 353.027L819.921 351.495C825.633 350.564 831.645 346.067 835.056 341.426C836.415 339.576 837.463 337.226 837.077 334.877C836.371 330.568 824.083 318.794 820.175 316.394C816.138 313.915 774.993 311.279 767.938 311.513Z" fill="#4C9CF7"/>
<path d="M737.824 222.725C755.662 223.349 785.386 226.562 803.705 228.626C806.517 228.945 839.434 255.966 835.589 260.742C831.576 265.728 813.969 277.974 807.038 280.774C801.96 281.705 748.214 280.768 744.105 279.395C739.462 277.841 712.073 255.782 710.03 251.451C709.631 250.604 709.921 249.394 710.246 248.559C712.312 243.243 732.503 224.907 737.824 222.725ZM788.985 243.123C781.786 242.079 763.497 239.578 756.945 239.934C737.79 245.72 739.439 252.495 756.754 264.063C759.021 265.577 784.377 265.302 789.006 265.071C794.354 263.746 805.029 261.011 800.79 254.18C798.606 250.664 793.431 244.47 788.985 243.123Z" fill="#FACE4B"/>
<path d="M812.105 188.546C814.678 188.341 825.129 190.336 829.329 191.117C843.166 193.862 866.467 195.447 878.911 200.197C882.039 201.391 907.259 225.88 910 228.974C904.315 233.092 891.446 238.163 884.504 241.289L881.111 242.583C868.998 240.653 856.141 238.237 844.145 236.197C839.23 235.361 820.578 232.519 817.498 230.637C810.138 226.139 794.113 211.585 788.383 205.263C792.78 200.836 806.223 192.394 812.105 188.546Z" fill="#F3A142"/>
<path d="M766.254 469.067C768.735 468.834 770.834 468.687 773.209 470.403C777.983 473.518 791.49 484.112 792.55 489.551C793.701 495.983 775.981 516.649 771.621 519.265C766.426 522.384 742.009 526.373 735.247 527.757C730.948 528.488 729.252 527.881 725.605 525.452C720.888 522.161 710.072 513.62 709.03 508.314C708.117 503.66 723.898 477.822 727.325 476.712C739.112 472.894 753.922 471.131 766.254 469.067Z" fill="#4C9CF7"/>
</svg>
