<svg width="192" height="192" viewBox="0 0 192 192" fill="none" xmlns="http://www.w3.org/2000/svg">
<path d="M62.1916 106.344C62.4815 106.343 62.8374 106.437 63.1028 106.553C69.076 109.149 75.0502 111.762 80.9944 114.425C81.2658 114.547 82.2537 115.061 82.3401 115.299C82.4567 115.624 82.6021 116.538 82.6262 116.878C83.1182 123.862 83.5518 130.851 84.0432 137.836C84.0914 138.519 84.1465 139.265 84.051 139.941C84.0139 140.195 83.5018 140.813 83.3625 141.047C79.5367 145.983 75.7399 150.946 71.8606 155.84C71.566 156.211 71.1642 156.439 70.7512 156.651C69.2708 156.491 66.7619 155.513 65.2971 155.003L56.759 152.127C54.5329 151.389 52.2843 150.649 50.0725 149.874C49.2176 149.534 48.9183 149.509 48.5656 148.635C48.0523 147.362 47.7562 146.043 47.3781 144.726L45.0881 136.639L42.8195 128.645C42.5909 127.855 41.0822 123.431 41.6184 122.809C42.7694 121.472 44.7432 120.047 46.1477 118.919L52.4123 113.872C55.2185 111.609 58.0316 109.295 60.8703 107.071C61.328 106.713 61.6532 106.549 62.1916 106.344ZM64.9748 111.97C64.2402 111.648 63.3724 111.204 62.5608 111.334C61.4977 111.865 60.3509 112.886 59.4026 113.65L55.4113 116.871L50.1203 121.146C49.2379 121.858 48.3245 122.564 47.4621 123.296C47.1726 123.541 46.537 124.159 46.4035 124.515C46.2866 124.827 46.2683 125.189 46.3469 125.516C46.6511 126.785 47.0562 128.061 47.4133 129.318C48.0909 131.772 48.7845 134.222 49.4944 136.667L51.0529 142.202C51.2952 143.049 51.8556 145.174 52.2922 145.836C52.7227 146.487 56.4678 147.576 57.2942 147.854L64.9123 150.412C65.6168 150.651 66.3483 150.904 67.0442 151.144C68.6252 151.687 69.5197 152.033 70.6613 150.53C73.6208 146.633 76.7819 142.816 79.6145 138.833C79.9686 138.333 79.5556 134.249 79.5012 133.477L79.0207 126.425L78.7151 121.729C78.6556 120.806 78.6952 118.378 77.9367 117.846C76.9729 117.171 75.6251 116.662 74.5305 116.184L69.8586 114.139C68.2279 113.423 66.6059 112.685 64.9748 111.97Z" fill="#F3A142"/>
<path d="M76.8719 44.0723C78.0858 43.9322 80.0197 45.3285 81.1199 45.9551C83.107 47.0676 85.0847 48.1969 87.0526 49.3428C89.8798 50.955 92.7257 52.5358 95.5359 54.1758C96.2049 54.5663 97.2479 55.4293 96.866 56.3291C95.9557 58.4752 94.772 60.5741 93.6981 62.6514L90.8328 68.1954C90.3832 69.0667 89.0561 71.9879 88.2547 72.4551C87.7075 72.7742 85.9951 73.4083 85.3152 73.6836L79.1082 76.1983L70.2108 79.8135C68.6378 80.4564 67.0131 81.1404 65.4188 81.7354C64.9614 81.9062 64.7216 81.8653 64.2664 81.7334C59.9226 79.926 55.5191 77.951 51.1942 76.0694L47.2391 74.3536C46.326 73.9569 45.4804 73.6013 44.6082 73.1143C43.7641 72.7452 43.8416 71.537 44.0106 70.7198C45.2062 64.9424 46.4231 59.1577 47.659 53.3877C47.9158 52.189 48.3355 51.9316 49.4813 51.5928C50.8963 51.1748 52.3409 50.807 53.7664 50.4122L63.1893 47.8116L71.9744 45.3965C73.5574 44.9607 75.2822 44.4205 76.8719 44.0723ZM77.9676 49.044C77.3814 48.7117 76.8371 48.5341 76.16 48.6319L61.8963 52.5743L56.2762 54.1163C55.1024 54.4353 52.5555 54.9931 51.7156 55.6534C51.172 56.7345 50.8722 58.5691 50.6346 59.7901C50.0665 62.7086 49.3906 65.6205 48.8045 68.5323C48.4994 70.0466 49.216 70.6245 50.494 71.1524C55.059 73.1021 59.5966 75.1292 64.1678 77.0616C64.5659 77.1661 64.963 77.2741 65.366 77.1368C66.7004 76.6823 68.0723 76.099 69.3748 75.5684L76.8172 72.544L82.0545 70.4151C83.3727 69.8872 85.4851 69.326 86.1287 68.0323C87.7866 64.699 89.7314 61.3865 91.2166 57.9805C91.5381 57.2434 90.7598 56.2792 90.1561 55.9883C86.1016 53.6716 82.0314 51.3468 77.9676 49.044Z" fill="#F3A142"/>
<path d="M43.4922 76.1618C44.3552 76.1162 46.3216 77.0342 47.1885 77.3806L53.1934 79.7878L58.9551 82.1052C60.1387 82.5742 61.3558 83.0266 62.4961 83.5417C63.5553 84.0201 63.6661 84.5059 63.6231 85.5573C63.5683 86.8916 63.4448 88.2843 63.3467 89.6081L62.874 96.2341L62.5508 100.843C62.4858 101.788 62.4444 102.95 62.2764 103.861C61.5102 104.785 60.2309 105.746 59.2696 106.524L55.2002 109.813L49.3623 114.543C48.1484 115.526 46.0007 117.445 44.6436 118.035C43.7731 117.849 42.9705 117.602 42.1182 117.35C41.3575 117.19 40.217 116.831 39.4326 116.613L33.916 115.071L28.0352 113.42C22.6975 111.939 23.1239 112.865 22.669 107.376L22.1582 101.211L21.5381 94.1765C21.4501 93.185 21.1403 90.517 21.2832 89.6599C21.9531 88.7012 24.7222 87.229 25.8526 86.5495L34.0401 81.6765L39.9102 78.1696C40.8949 77.5838 42.4987 76.5665 43.4922 76.1618ZM43.8916 80.8815C42.8505 81.2708 41.6027 82.0867 40.6153 82.6765L36.1514 85.3434L30.0508 88.9704C28.9171 89.6435 26.39 90.9315 25.749 91.9587C25.643 92.8863 25.8164 94.4312 25.9004 95.4157L26.3115 100.127C26.5168 102.463 26.5814 104.884 26.916 107.198C26.9723 107.587 27.0611 108.155 27.3194 108.457C28.2553 109.551 39.1259 111.96 41.5225 112.825C42.2014 113.017 43.6246 113.517 44.1895 113.141C46.064 111.894 48.0532 110.136 49.8076 108.72L54.7617 104.729C55.6909 103.979 56.6276 103.227 57.5274 102.438C58.3817 101.77 58.3375 100.295 58.4102 99.2497C58.6716 95.4772 58.9958 91.6833 59.1778 87.905C59.2511 86.3786 56.7804 85.7699 55.6221 85.3132L51.6436 83.7243L47.2989 81.9753C46.4769 81.6451 44.7015 80.8382 43.8916 80.8815Z" fill="#87C664"/>
<path d="M87.1559 74.5886C87.6649 74.5447 87.9857 74.6384 88.4332 74.8864C92.1721 76.9414 95.8148 79.381 99.5162 81.488C103.687 83.8627 103.007 83.8234 101.743 88.0593C101.078 90.2713 100.4 92.4796 99.7086 94.6833C99.0971 96.6797 98.5397 98.9918 97.7213 100.907C97.5805 101.235 96.9932 101.672 96.6842 101.854C94.5243 103.127 91.9456 104.704 89.7857 105.892C88.008 106.87 82.7141 110.379 81.0406 110.857C80.6901 110.751 80.3611 110.61 80.0221 110.472C77.4761 109.363 75.0074 108.113 72.4791 106.975C70.8361 106.243 69.2015 105.492 67.5758 104.722C66.5077 104.22 64.7777 103.594 64.107 102.644C63.9829 100.743 65.1258 85.2321 65.5924 84.0671C66.3303 83.2801 70.854 81.5152 72.0465 81.0065L79.5035 77.7946C81.7184 76.858 84.8889 75.3241 87.1559 74.5886ZM86.4478 78.819C84.318 79.5592 81.1866 81.0541 79.0113 81.9802L73.8727 84.1794C72.9827 84.5612 72.0455 84.9012 71.1871 85.3483C70.8096 85.5451 70.1219 85.9021 69.9508 86.3034C69.6886 86.9203 68.7939 97.2437 68.7877 98.5661C68.7855 98.9701 68.8197 99.3944 68.9957 99.7643C69.1517 100.092 69.5141 100.314 69.817 100.494C71.3146 101.383 73.0151 102.037 74.6012 102.763C76.5289 103.647 78.4245 104.594 80.3619 105.457C81.1627 105.722 81.4127 105.68 82.1646 105.273C83.6432 104.473 85.0961 103.603 86.566 102.783C88.0332 101.967 89.4925 101.137 90.9439 100.294C91.7756 99.8187 93.9349 98.7641 94.2428 97.8893C95.4786 94.3757 96.4792 90.6878 97.565 87.1188C97.874 86.1026 97.6467 85.2645 96.7398 84.736C93.9364 82.9039 91.0651 81.1846 88.2623 79.3503C87.7329 79.004 87.0837 78.7445 86.4478 78.819Z" fill="#1F4AC8"/>
<path d="M120.288 56.1257C121.064 56.0224 121.7 56.2276 122.315 56.7097C125.573 59.2619 128.827 61.8093 132.085 64.364C133.028 65.1285 133.833 66.0571 132.74 67.4568C130.605 70.19 126.989 75.5774 124.677 77.8533C124.469 78.0555 118.868 79.3521 118.284 79.4939L110.696 81.3191C109.696 81.5628 105.426 82.762 104.607 82.5281C103.873 82.2294 103.082 81.6967 102.407 81.2722C99.0814 79.1795 95.713 77.1301 92.3857 75.0417C90.6743 73.9674 91.1131 72.968 91.8486 71.4441C93.2816 68.4296 94.9263 65.3931 96.3271 62.3796C97.9451 58.8994 97.8899 59.1926 101.52 58.6941L106.318 58.0398C110.84 57.4203 115.788 56.6227 120.288 56.1257ZM117.587 59.8562C112.556 60.4184 107.248 61.2484 102.239 62.0242C101.162 62.1917 100.449 64.1479 99.9795 64.9851C99.0308 66.9341 97.8673 68.77 96.9638 70.7341C96.438 71.8775 96.7734 72.7529 97.8486 73.4197C100.3 74.9396 102.811 76.4582 105.285 77.9509C105.698 78.1997 106.164 78.4376 106.63 78.5642C108.043 78.5673 112.004 77.5485 113.674 77.241C116.051 76.7487 118.452 76.3241 120.813 75.7634C121.247 75.6298 121.778 75.4677 122.074 75.112C123.607 73.2681 124.758 71.1403 126.213 69.2224C127.022 68.148 128.063 66.5416 126.605 65.4822C124.353 63.8447 122.008 62.3337 119.726 60.737C119.154 60.3373 118.302 59.7731 117.587 59.8562Z" fill="#87C664"/>
<path d="M121.287 80.4082C121.737 80.4271 122.166 80.6972 122.536 80.9336C123.621 81.6264 124.608 82.5388 125.631 83.3232C126.937 84.3246 129.274 85.8269 130.306 87.0098C130.576 87.3193 130.673 87.504 130.628 87.9219C130.584 88.3292 130.456 88.7179 130.298 89.0938C129.764 90.3589 125.712 98.5228 125.043 98.9824C124.108 99.6232 121.527 100.476 120.359 100.952L115.138 103.074C114.223 103.444 112.168 104.423 111.247 104.299C110.341 103.921 109.378 103.148 108.576 102.554C106.482 100.999 104.313 99.4973 102.248 97.9072C101.371 97.2317 101.312 96.7364 101.642 95.6865C102.557 92.7693 103.606 89.9007 104.579 86.998C104.8 86.3408 105.25 84.7517 105.956 84.4375C107.825 83.8248 109.782 83.3361 111.694 82.8633C114.853 82.0826 118.003 81.1306 121.171 80.4062C121.21 80.4069 121.249 80.4067 121.287 80.4082ZM119.077 84.0557C117.202 84.4462 115.339 84.932 113.477 85.3828C112.379 85.6485 111.148 85.8462 110.106 86.2715C109.786 86.4018 109.558 86.5072 109.36 86.8018C108.715 87.7641 106.375 94.4558 106.55 95.3818C106.618 95.7425 106.996 96.121 107.262 96.3672C108.098 97.1432 109.135 97.7929 110.06 98.4619C110.964 99.1167 111.862 99.8462 112.818 100.419C112.99 100.523 113.175 100.605 113.361 100.68C115.31 100.54 118.263 98.6727 120.173 98.0635C122.184 97.4223 122.641 96.2398 123.494 94.4795C124.208 93.0799 124.878 91.7536 125.606 90.251C126.745 87.8972 123.051 86.709 121.733 85.3008C121.114 84.6396 120.045 83.9525 119.077 84.0557Z" fill="#FACE4B"/>
<path d="M115.467 39.2076C116.162 39.1421 116.947 39.5928 117.515 39.9702C120.102 41.6882 122.82 43.1991 125.368 44.9702C126.656 45.8653 126.623 46.98 125.652 48.1382C124.398 49.4726 123.16 50.8253 121.928 52.1812C120.968 53.2384 120.296 54.0977 118.788 54.2632C114.484 54.7357 110.188 55.3445 105.881 55.774C105.446 55.799 104.688 55.8764 104.303 55.6685C101.465 54.1332 98.6406 52.4802 95.8924 50.7886C94.811 50.1048 94.475 49.2362 95.2215 48.105C95.8939 47.0868 99.9979 40.91 100.758 40.8189C105.612 40.2367 110.635 39.5414 115.467 39.2076ZM118.064 44.8042C115.768 43.4498 116.18 42.1534 113.029 42.4478L108.928 42.9009C107.361 43.0591 105.671 43.1032 104.167 43.5464C103.839 43.643 103.288 44.2118 103.076 44.5044C101.796 46.2749 99.5986 48.0595 102.384 49.7622C103.58 50.494 104.857 51.4257 106.207 51.8697C106.508 51.962 107.454 51.8722 107.78 51.8452C109.321 51.7137 115.821 51.4456 116.694 50.897C118.938 49.4856 121.602 46.8906 118.064 44.8042Z" fill="#1F4AC8"/>
<path d="M147.425 69.9751C148.492 69.9442 149.644 69.898 150.697 70.0484C151.763 70.8262 153.179 72.4447 154.167 73.4009C155.066 74.3335 156.026 75.2286 156.873 76.2085C157.57 77.0166 157.715 77.7619 156.933 78.6226C156.284 79.3378 155.626 79.9535 154.868 80.6538C153.432 81.9807 152.052 83.722 150.398 84.7896C149.173 85.1999 146.541 85.3913 145.213 85.5503L137.563 86.4908C136.72 86.5975 136.009 86.6918 135.158 86.7271C134.254 86.2131 127.875 80.535 127.489 79.6509C127.478 79.2153 127.634 78.7266 127.854 78.355C128.534 77.2077 129.448 76.0914 130.248 75.0044C131.217 73.6863 132.202 72.2889 133.251 71.0435C133.412 70.8526 133.92 70.3784 134.124 70.3521C135.347 70.1937 136.974 70.2033 138.188 70.1773C141.267 70.1268 144.347 70.059 147.425 69.9751ZM144.693 72.8824C143.249 72.9068 141.725 72.9205 140.294 72.9585C139.335 73.0473 137.309 72.7447 136.667 73.6158C135.856 74.7158 133.302 77.7421 133.082 78.8189C132.9 79.7121 136.956 83.1278 137.794 83.6763C138.565 83.6583 139.108 83.5745 139.865 83.4644C141.232 83.2475 142.65 83.0331 143.985 82.8081C145.555 82.5344 147.537 82.4518 148.55 81.0337C149.127 80.227 151.879 78.3049 151.559 77.3286C151.205 76.2458 148.481 73.5554 147.532 72.9019C146.555 72.8434 145.671 72.865 144.693 72.8824Z" fill="#F3A142"/>
<path d="M140.784 55.7841C141.939 55.6631 154.559 56.1083 155.482 56.3574C156.289 56.5758 161.473 61.061 162.277 61.8515C162.568 62.1373 162.834 62.4432 163.032 62.8017C163.158 63.0301 163.25 63.2465 163.155 63.4999C162.818 64.4025 157.589 68.0887 156.521 68.5175C155.524 68.7703 151.651 68.8872 150.479 68.9296C148.09 69.0163 145.188 69.2975 142.839 69.2304C142.765 69.1819 142.692 69.1313 142.62 69.079C141.292 68.127 140.056 67.0049 138.786 65.9745C137.7 65.093 136.466 64.2416 135.494 63.2431C135.229 62.9712 134.792 62.4748 134.793 62.08C134.797 61.1333 139.778 56.5192 140.784 55.7841ZM143.988 58.4081C142.971 59.0365 140.251 61.6339 141.337 62.8554C142.121 63.7379 143.696 65.6587 144.66 66.2812C145.814 66.3762 147.421 66.2563 148.604 66.1913L153.735 65.9042C154.806 65.7297 155.934 64.8867 156.573 64.0165C156.828 63.6698 157.024 63.2295 156.952 62.789C156.82 61.9811 154.516 59.7731 153.783 59.3232C153.026 58.8584 145.311 58.3642 143.988 58.4081Z" fill="#4C9CF7"/>
<path d="M138.342 41.7617C141.687 41.8789 147.26 42.4812 150.694 42.8682C151.224 42.93 157.393 47.9943 156.672 48.8896C155.92 49.8243 152.619 52.1201 151.319 52.6455C150.368 52.82 140.294 52.645 139.52 52.3877C138.649 52.0965 133.513 47.9595 133.13 47.1475C133.055 46.9886 133.11 46.7619 133.171 46.6055C133.559 45.6087 137.344 42.1708 138.342 41.7617ZM141.927 44.9883C138.335 46.0732 138.644 47.3436 141.891 49.5127C142.316 49.7964 147.071 49.7445 147.938 49.7012C148.942 49.4526 150.942 48.9398 150.147 47.6592C149.738 46.9999 148.767 45.8384 147.934 45.5859C146.584 45.3902 143.155 44.9217 141.927 44.9883Z" fill="#FACE4B"/>
<path d="M152.268 35.3524C152.751 35.3139 154.71 35.688 155.498 35.8345C158.092 36.3491 162.461 36.6464 164.794 37.537C165.381 37.7609 170.11 42.3526 170.624 42.9326C169.558 43.7047 167.145 44.6556 165.843 45.2418L165.207 45.4844C162.936 45.1224 160.525 44.6694 158.276 44.2869C157.354 44.1301 153.857 43.5974 153.279 43.2445C151.899 42.401 148.895 39.6722 147.82 38.4867C148.645 37.6567 151.165 36.0739 152.268 35.3524Z" fill="#F3A142"/>
<path d="M143.674 87.9499C144.139 87.9062 144.533 87.8787 144.978 88.2005C145.873 88.7844 148.406 90.7708 148.605 91.7907C148.82 92.9968 145.498 96.8715 144.68 97.362C143.706 97.9469 139.128 98.6948 137.86 98.9543C137.054 99.0914 136.736 98.9775 136.052 98.522C135.168 97.9051 133.14 96.3037 132.945 95.3088C132.773 94.4361 135.732 89.5916 136.375 89.3834C138.585 88.6675 141.362 88.3369 143.674 87.9499Z" fill="#4C9CF7"/>
</svg>
