<svg width="512" height="512" viewBox="0 0 512 512" fill="none" xmlns="http://www.w3.org/2000/svg">
<path d="M165.838 283.58C166.611 283.577 167.56 283.832 168.268 284.14C184.197 291.064 200.128 298.029 215.979 305.131C216.702 305.455 219.339 306.828 219.568 307.463C219.879 308.33 220.268 310.766 220.333 311.672C221.645 330.296 222.801 348.934 224.111 367.56C224.24 369.381 224.385 371.37 224.13 373.176C224.031 373.853 222.667 375.498 222.295 376.122C212.093 389.286 201.968 402.52 191.623 415.569C190.837 416.56 189.767 417.167 188.666 417.733C184.718 417.307 178.028 414.7 174.122 413.339L151.351 405.668C145.415 403.699 139.421 401.73 133.523 399.663C131.242 398.756 130.444 398.69 129.503 396.357C128.135 392.962 127.344 389.445 126.335 385.933L120.229 364.367L114.181 343.049C113.571 340.941 109.547 329.148 110.977 327.487C114.046 323.924 119.31 320.123 123.055 317.116L139.761 303.656C147.244 297.621 154.746 291.45 162.316 285.521C163.536 284.565 164.403 284.126 165.838 283.58ZM173.261 298.583C171.302 297.724 168.988 296.544 166.824 296.89C163.989 298.306 160.93 301.028 158.401 303.066L147.758 311.654L133.649 323.056C131.296 324.954 128.86 326.834 126.56 328.787C125.788 329.442 124.092 331.09 123.737 332.038C123.425 332.872 123.377 333.834 123.586 334.706C124.398 338.09 125.477 341.495 126.429 344.847C128.236 351.39 130.086 357.923 131.979 364.442L136.135 379.204C136.781 381.463 138.277 387.127 139.441 388.893C140.587 390.63 150.574 393.532 152.779 394.273L173.095 401.098C174.974 401.734 176.925 402.409 178.781 403.048C182.997 404.498 185.382 405.42 188.426 401.411C196.318 391.018 204.747 380.842 212.3 370.221C213.246 368.891 212.145 357.996 212 355.936L210.716 337.131L209.901 324.606C209.742 322.147 209.85 315.671 207.828 314.253C205.257 312.453 201.664 311.098 198.745 309.821L186.286 304.369C181.936 302.46 177.611 300.49 173.261 298.583Z" fill="#F3A142"/>
<path d="M204.997 117.528C208.234 117.154 213.39 120.875 216.324 122.546C221.623 125.512 226.897 128.525 232.145 131.581C239.685 135.88 247.273 140.097 254.768 144.471C256.552 145.512 259.332 147.811 258.313 150.211C255.886 155.934 252.73 161.532 249.866 167.072L242.226 181.854C241.027 184.178 237.49 191.97 235.352 193.216C233.894 194.066 229.326 195.756 227.513 196.49L210.962 203.195L187.234 212.836C183.039 214.55 178.706 216.376 174.454 217.963C173.235 218.418 172.596 218.308 171.382 217.957C159.798 213.137 148.056 207.869 136.523 202.851L125.976 198.276C123.541 197.218 121.285 196.271 118.959 194.972C116.708 193.988 116.917 190.765 117.367 188.586C120.555 173.18 123.801 157.754 127.097 142.368C127.781 139.171 128.9 138.484 131.955 137.581C135.728 136.466 139.58 135.486 143.382 134.433L168.511 127.499L191.936 121.058C196.158 119.896 200.757 118.457 204.997 117.528ZM207.92 130.784C206.356 129.898 204.904 129.425 203.098 129.686L165.062 140.198L150.076 144.311C146.946 145.162 140.153 146.648 137.913 148.409C136.463 151.292 135.663 156.184 135.029 159.44C133.514 167.223 131.714 174.989 130.151 182.754C129.338 186.792 131.248 188.331 134.656 189.739C146.829 194.938 158.928 200.344 171.118 205.497C172.18 205.776 173.238 206.065 174.313 205.699C177.872 204.487 181.531 202.93 185.005 201.514L204.851 193.452L218.818 187.773C222.333 186.366 227.964 184.871 229.681 181.421C234.102 172.531 239.288 163.697 243.249 154.614C244.106 152.649 242.032 150.078 240.422 149.303C229.61 143.125 218.756 136.925 207.92 130.784Z" fill="#F3A142"/>
<path d="M115.978 203.096C118.279 202.974 123.525 205.424 125.836 206.347L141.849 212.766L157.212 218.945C160.369 220.196 163.615 221.403 166.657 222.777C169.481 224.053 169.775 225.347 169.661 228.151C169.515 231.709 169.187 235.422 168.925 238.952L167.663 256.622L166.802 268.913C166.629 271.433 166.518 274.529 166.07 276.959C164.027 279.424 160.615 281.988 158.051 284.062L147.202 292.834L131.632 305.444C128.395 308.067 122.669 313.186 119.05 314.758C116.728 314.262 114.587 313.603 112.314 312.931C110.285 312.505 107.243 311.546 105.152 310.965L90.4419 306.853L74.7593 302.45C60.5255 298.501 61.6628 300.971 60.4497 286.334L59.0874 269.894L57.435 251.135C57.2004 248.491 56.3739 241.376 56.7553 239.09C58.5417 236.534 65.9243 232.609 68.9389 230.796L90.7739 217.802L106.425 208.451C109.051 206.889 113.328 204.176 115.978 203.096ZM117.042 215.683C114.266 216.721 110.939 218.896 108.305 220.468L96.4038 227.581L80.1362 237.251C77.1137 239.046 70.3742 242.481 68.6645 245.22C68.3815 247.694 68.8437 251.815 69.0678 254.441L70.1626 267.001C70.7099 273.232 70.8824 279.688 71.7749 285.86C71.925 286.898 72.1626 288.41 72.851 289.215C75.3461 292.133 104.334 298.557 110.725 300.863C112.535 301.374 116.333 302.711 117.839 301.709C122.838 298.382 128.141 293.696 132.82 289.92L146.03 279.276C148.508 277.274 151.006 275.27 153.406 273.167C155.685 271.385 155.566 267.453 155.76 264.664C156.457 254.603 157.321 244.486 157.806 234.41C158.001 230.34 151.413 228.716 148.325 227.499L137.717 223.264L126.131 218.599C123.94 217.719 119.202 215.567 117.042 215.683Z" fill="#87C664"/>
<path d="M232.411 198.901C233.769 198.784 234.624 199.033 235.818 199.695C245.788 205.175 255.501 211.68 265.372 217.298C276.495 223.631 274.681 223.527 271.309 234.823C269.536 240.722 267.728 246.61 265.883 252.487C264.253 257.811 262.768 263.975 260.585 269.082C260.211 269.957 258.644 271.123 257.82 271.608C252.06 275.002 245.185 279.208 239.425 282.377C234.686 284.984 220.566 294.342 216.103 295.616C215.168 295.333 214.292 294.956 213.387 294.589C206.598 291.632 200.015 288.298 193.273 285.265C188.891 283.313 184.532 281.309 180.197 279.256C177.348 277.917 172.735 276.248 170.947 273.715C170.616 268.644 173.663 227.283 174.908 224.176C176.875 222.078 188.938 217.372 192.119 216.015L212.006 207.449C217.913 204.951 226.366 200.862 232.411 198.901ZM235.362 211.597C233.95 210.674 232.219 209.982 230.523 210.181C224.843 212.155 216.494 216.141 210.693 218.611L196.989 224.477C194.616 225.495 192.117 226.4 189.828 227.592C188.821 228.117 186.986 229.069 186.53 230.139C185.831 231.78 183.445 259.312 183.428 262.839C183.422 263.917 183.514 265.049 183.983 266.036C184.399 266.91 185.367 267.502 186.174 267.981C190.168 270.352 194.702 272.096 198.932 274.034C204.073 276.39 209.128 278.914 214.294 281.214C216.43 281.922 217.095 281.813 219.1 280.727C223.043 278.593 226.917 276.273 230.837 274.086C234.75 271.911 238.642 269.697 242.513 267.447C244.732 266.18 250.491 263.368 251.311 261.036C254.607 251.666 257.274 241.832 260.169 232.315C260.994 229.605 260.386 227.37 257.967 225.96C250.491 221.075 242.836 216.489 235.362 211.597Z" fill="#1F4AC8"/>
<path d="M320.773 149.667C322.842 149.392 324.537 149.939 326.178 151.225C334.865 158.031 343.543 164.824 352.23 171.636C354.746 173.675 356.894 176.151 353.979 179.884C348.286 187.173 338.642 201.538 332.477 207.607C331.931 208.145 316.981 211.606 315.428 211.983L295.196 216.848C292.532 217.497 281.143 220.698 278.959 220.074C276.999 219.278 274.89 217.855 273.091 216.723C264.223 211.143 255.24 205.679 246.367 200.111C241.803 197.246 242.974 194.58 244.935 190.516C248.757 182.477 253.142 174.379 256.878 166.343C261.192 157.063 261.044 157.846 270.722 156.517L283.521 154.77C295.578 153.118 308.774 150.992 320.773 149.667ZM319.274 161.963C317.75 160.897 315.475 159.392 313.569 159.614C300.155 161.113 286.001 163.327 272.644 165.396C269.772 165.841 267.869 171.057 266.617 173.29C264.087 178.488 260.983 183.383 258.574 188.621C257.171 191.671 258.067 194.007 260.935 195.785C267.473 199.839 274.169 203.887 280.766 207.867C281.867 208.531 283.111 209.164 284.352 209.501C288.122 209.509 298.681 206.794 303.134 205.974C309.475 204.661 315.875 203.529 322.174 202.033C323.329 201.677 324.747 201.246 325.537 200.297C329.625 195.38 332.691 189.705 336.572 184.591C338.73 181.726 341.507 177.442 337.621 174.616C331.613 170.25 325.362 166.221 319.274 161.963Z" fill="#87C664"/>
<path d="M323.431 214.421C324.631 214.471 325.775 215.191 326.762 215.821C329.653 217.669 332.285 220.103 335.014 222.194C338.496 224.865 344.727 228.87 347.479 232.024C348.2 232.85 348.459 233.342 348.339 234.456C348.221 235.543 347.882 236.581 347.46 237.583C346.037 240.957 335.228 262.73 333.446 263.953C330.953 265.662 324.067 267.937 320.953 269.206L307.032 274.862C304.592 275.848 299.11 278.462 296.656 278.13C294.239 277.123 291.674 275.058 289.536 273.475C283.95 269.328 278.165 265.324 272.659 261.084C270.321 259.283 270.166 257.964 271.044 255.164C273.485 247.385 276.281 239.734 278.877 231.993C279.464 230.24 280.666 226.004 282.549 225.167C287.533 223.533 292.75 222.23 297.849 220.969C306.272 218.887 314.673 216.348 323.121 214.416C323.225 214.418 323.328 214.417 323.431 214.421ZM324.618 227.468C322.968 225.704 320.117 223.873 317.536 224.148C312.535 225.19 307.569 226.483 302.603 227.686C299.676 228.394 296.394 228.922 293.612 230.057C292.761 230.404 292.154 230.684 291.627 231.47C289.906 234.033 283.664 251.88 284.13 254.35C284.311 255.312 285.321 256.322 286.029 256.979C288.259 259.048 291.025 260.781 293.49 262.564C295.902 264.31 298.296 266.256 300.845 267.783C301.306 268.06 301.797 268.28 302.295 268.479C307.49 268.107 315.364 263.126 320.458 261.501C325.821 259.791 327.041 256.64 329.317 251.945C331.22 248.213 333.006 244.676 334.946 240.669C337.985 234.392 328.132 231.223 324.618 227.468Z" fill="#FACE4B"/>
<path d="M307.913 104.55C309.766 104.376 311.86 105.579 313.375 106.585C320.273 111.167 327.52 115.197 334.316 119.92C337.75 122.307 337.662 125.279 335.074 128.368C331.729 131.926 328.43 135.532 325.146 139.148C322.584 141.967 320.791 144.257 316.769 144.699C305.292 145.959 293.837 147.584 282.351 148.729C281.193 148.796 279.17 149.003 278.145 148.449C270.574 144.354 263.042 139.945 255.713 135.434C252.829 133.61 251.935 131.294 253.926 128.278C255.719 125.562 266.663 109.091 268.689 108.848C281.633 107.296 295.029 105.44 307.913 104.55ZM314.841 119.478C308.717 115.866 309.816 112.406 301.413 113.191L290.479 114.401C286.299 114.823 281.791 114.939 277.778 116.121C276.905 116.379 275.436 117.896 274.871 118.676C271.458 123.398 265.597 128.156 273.024 132.697C276.215 134.648 279.619 137.133 283.219 138.317C284.022 138.563 286.546 138.324 287.416 138.252C291.526 137.902 308.855 137.187 311.185 135.724C317.169 131.961 324.274 125.042 314.841 119.478Z" fill="#1F4AC8"/>
<path d="M393.136 186.602C395.981 186.52 399.053 186.397 401.859 186.798C404.702 188.872 408.48 193.188 411.112 195.738C413.511 198.225 416.069 200.61 418.328 203.223C420.189 205.379 420.575 207.365 418.49 209.661C416.758 211.569 415.002 213.211 412.98 215.079C409.151 218.617 405.473 223.259 401.062 226.106C397.796 227.2 390.778 227.71 387.238 228.135L366.836 230.644C364.587 230.929 362.693 231.178 360.422 231.272C358.012 229.902 341 214.762 339.97 212.404C339.941 211.242 340.357 209.939 340.944 208.948C342.758 205.888 345.196 202.912 347.329 200.013C349.915 196.498 352.538 192.77 355.335 189.449C355.766 188.94 357.12 187.678 357.664 187.608C360.926 187.186 365.264 187.209 368.502 187.139C376.714 187.005 384.926 186.826 393.136 186.602ZM393.42 194.407C390.815 194.251 388.457 194.309 385.849 194.355C381.999 194.42 377.935 194.457 374.117 194.558C371.56 194.795 366.156 193.987 364.444 196.31C362.283 199.244 355.472 207.313 354.884 210.184C354.397 212.566 365.216 221.677 367.453 223.139C369.507 223.092 370.955 222.867 372.973 222.573C376.62 221.995 380.398 221.422 383.96 220.822C388.148 220.092 393.432 219.872 396.135 216.09C397.673 213.938 405.011 208.815 404.16 206.212C403.215 203.324 395.951 196.15 393.42 194.407Z" fill="#F3A142"/>
<path d="M375.425 148.76C378.505 148.437 412.156 149.624 414.618 150.288C416.767 150.869 430.591 162.83 432.737 164.938C433.514 165.701 434.222 166.517 434.751 167.473C435.088 168.082 435.331 168.659 435.078 169.335C434.177 171.742 420.234 181.572 417.386 182.715C414.728 183.389 404.401 183.701 401.275 183.814C394.906 184.045 387.168 184.795 380.902 184.616C380.704 184.486 380.509 184.351 380.318 184.212C376.777 181.673 373.479 178.681 370.094 175.933C367.197 173.583 363.907 171.313 361.315 168.65C360.609 167.925 359.441 166.601 359.445 165.548C359.458 163.022 372.745 150.718 375.425 148.76ZM383.969 155.757C381.256 157.431 374.002 164.357 376.897 167.615C378.989 169.968 383.189 175.093 385.76 176.753C388.837 177.006 393.122 176.687 396.277 176.513L409.96 175.747C412.816 175.281 415.822 173.033 417.527 170.713C418.207 169.788 418.732 168.613 418.539 167.438C418.186 165.284 412.042 159.397 410.088 158.197C408.07 156.958 387.496 155.639 383.969 155.757Z" fill="#4C9CF7"/>
<path d="M368.912 111.363C377.831 111.676 392.693 113.282 401.852 114.313C403.257 114.472 419.717 127.984 417.794 130.372C415.788 132.865 406.985 138.987 403.519 140.388C400.981 140.853 374.107 140.385 372.052 139.698C369.731 138.921 356.037 127.892 355.015 125.727C354.815 125.303 354.96 124.698 355.123 124.28C356.156 121.623 366.251 112.455 368.912 111.363ZM394.492 121.562C390.892 121.041 381.748 119.79 378.472 119.968C368.895 122.861 369.719 126.248 378.376 132.032C379.51 132.789 392.188 132.653 394.502 132.537C397.177 131.875 402.514 130.506 400.394 127.091C399.302 125.333 396.715 122.236 394.492 121.562Z" fill="#FACE4B"/>
<path d="M406.053 94.273C407.339 94.1703 412.565 95.1679 414.664 95.5585C421.583 96.931 433.233 97.7236 439.455 100.099C441.019 100.696 453.629 112.94 455 114.487C452.157 116.546 445.723 119.082 442.252 120.645L440.556 121.292C434.499 120.326 428.07 119.118 422.072 118.098C419.615 117.68 410.289 116.26 408.749 115.319C405.069 113.069 397.056 105.793 394.191 102.631C396.39 100.418 403.111 96.197 406.053 94.273Z" fill="#F3A142"/>
<path d="M383.127 234.532C384.368 234.416 385.417 234.343 386.604 235.201C388.992 236.758 395.745 242.055 396.275 244.774C396.851 247.991 387.99 258.323 385.811 259.631C383.213 261.191 371.005 263.186 367.623 263.877C365.474 264.243 364.626 263.939 362.802 262.725C360.444 261.08 355.036 256.809 354.515 254.156C354.059 251.829 361.949 238.91 363.662 238.355C369.556 236.446 376.961 235.564 383.127 234.532Z" fill="#4C9CF7"/>
</svg>
