<svg width="1100" height="750" viewBox="0 0 1100 750" fill="none" xmlns="http://www.w3.org/2000/svg">
<g clip-path="url(#clip0_2528_273)">
<path d="M0 0H1100V736.774V750H0V3.18587V0Z" fill="#1E1E1E"/>
<path d="M518.43 140.909C524.52 139.893 530.731 139.256 536.835 138.424C707.498 115.16 880.235 104.557 1051.7 126.074C1067.29 128.031 1083.5 129.988 1099 132.686C1099.69 142.162 1099.3 156.397 1099.29 166.202C1099.27 176.335 1099.66 190.338 1099.02 200.19C1075.07 194.092 1051.04 188.307 1026.94 182.836C998.626 176.769 970.183 171.303 941.633 166.445C842.773 150.515 742.811 142.414 642.676 142.216C638.146 141.151 630.235 142.185 626.623 141.723C613.25 140.014 525.153 144.394 518.43 140.909Z" fill="#CA3B37"/>
<path d="M1099.05 712.144C1022.57 686.889 937.041 667.257 858.13 651.144C717.562 621.897 575.144 602.384 431.891 592.745L432.164 592.504C442.273 591.075 459.085 590.89 469.56 590.654C502.87 590.172 536.187 590.671 569.468 592.15C698.11 597.942 826.374 610.276 953.763 629.105C984.871 633.701 1015.9 638.804 1046.84 644.411C1057.51 646.414 1068.17 648.479 1078.82 650.605C1085.02 651.851 1092.84 653.689 1098.99 654.446C1099.85 664.016 1099 678.551 1099.29 688.645C1099.41 693.018 1099.48 708.933 1099.05 712.144Z" fill="#CA3B37"/>
<path d="M0 0H1100V736.774C1097.94 734.011 1098.9 716.708 1099.05 712.145C1099.48 708.934 1099.41 693.019 1099.29 688.646C1099 678.552 1099.85 664.017 1098.99 654.447C1098.14 633.216 1098.89 606.776 1098.89 585.064V449.065V286.766C1098.88 258.797 1098.25 227.875 1099.02 200.19C1099.66 190.338 1099.27 176.335 1099.29 166.202C1099.3 156.397 1099.69 142.162 1099 132.686C1098.56 118.128 1098.9 102.02 1098.9 87.3694L1098.87 3.19675L0 3.18587V0Z" fill="#BCBABF"/>
<path d="M510.211 141.792C513.231 141.283 515.364 141.109 518.431 140.908C525.154 144.393 613.251 140.013 626.624 141.722C630.236 142.184 638.147 141.15 642.677 142.215C611.631 142.876 579.359 141.73 548.2 142.36C536.881 142.589 524.736 141.988 513.557 142.555L510.211 141.792Z" fill="#934A43"/>
<path d="M513.557 142.555C510.963 142.987 508.254 143.173 505.73 142.406L505.822 141.973C507.174 141.68 508.805 141.779 510.211 141.792L513.557 142.555Z" fill="#352322"/>
<path d="M203.747 392.156C208.402 392.952 265.368 418.372 268.681 421.228C271.022 426.642 274.316 490.383 274.795 500.656C270.531 507.977 236.633 551.672 231.775 555.1C226.963 554.35 219.562 551.566 214.71 549.877L181.486 538.765C175.201 536.664 168.494 534.856 162.494 532.046C162.097 531.86 161.737 531.723 161.429 531.397C158.499 528.303 137.347 453.313 137.074 446.105C139.117 442.809 198.94 394.522 203.747 392.156Z" fill="#F2A241"/>
<path d="M205.385 408.174C213.712 408.973 245.549 425.506 254.772 429.777C257.303 430.949 257.963 451.934 258.226 455.899L260.806 496.172C258.618 500.626 232.97 534.242 227.034 538.445C225.387 539.611 214.763 535.515 211.785 534.494C204.476 531.942 175.977 524.139 171.921 519.642C170.869 518.476 170.21 516.437 169.721 514.956C167.8 509.133 152.138 454.746 152.686 451.946C153.027 450.203 155.814 447.751 157.081 446.589C165.298 439.051 174.615 432.273 183.312 425.274C190.294 419.655 197.614 412.604 205.385 408.174Z" fill="#1E1E1E"/>
<path d="M252.996 190.887C258.897 192.615 310.926 222.678 315.518 227.159C317.422 233.015 293.984 272.707 290.247 280.407C288.838 283.31 278.947 286.692 275.363 288.15L253.038 297.218L227.877 307.415C223.471 309.197 214.316 313.839 210.003 312.666C189.418 303.453 168.372 295.085 148.003 285.433C144.515 284.037 144.562 279.51 145.243 276.357C149.098 258.487 152.786 240.571 156.509 222.671C156.87 220.939 157.695 219.138 158.65 217.664C160.232 216.604 162.227 215.609 164.067 215.092C187.932 208.386 211.865 201.892 235.757 195.275C241.222 193.762 247.478 191.775 252.996 190.887Z" fill="#F2A241"/>
<path d="M249.009 205.814C255.644 205.197 288.161 227.044 295.818 231.045C302.543 234.559 279.21 271.152 278.864 271.287C268.577 275.279 218.414 298.658 211.059 298.121L180.844 285.063C176.806 283.312 161.817 277.566 161.011 274.432C159.739 269.482 168.336 233.082 169.758 229.545C171.005 226.441 194.512 220.9 199.841 219.435L249.009 205.814Z" fill="#1E1E1E"/>
<path d="M142.752 294.898C143.034 294.874 143.317 294.869 143.599 294.869C146.801 294.871 195.967 314.56 202.53 317.587C204.059 318.292 206.019 319.218 207.172 320.477C209.957 323.518 204.925 375.929 204.314 384.246C200.29 389.046 152.805 427.19 147.427 430.221L139.623 428.1C130.453 425.824 82.5465 413.337 78.3507 409.676C77.5524 408.045 77.1929 406.403 76.9359 404.617C76.0236 398.279 71.0159 342.567 71.9469 339.011C72.3852 337.336 73.5452 336.476 74.8671 335.493C82.048 330.154 90.687 325.804 98.4136 321.212L142.752 294.898Z" fill="#87C564"/>
<path d="M144.868 309.896C147.156 310.085 159.791 314.969 162.082 316.114C168.491 319.317 189.551 325.546 193.429 330.411C194.848 335.009 191.681 370.947 190.829 377.66C187.408 381.434 148.529 412.93 144.184 415.137L137.337 413.328C131.032 411.518 93.3803 402.236 91.3553 399.046C90.4092 397.555 90.0037 395.661 89.7301 393.935C88.9131 388.78 85.598 349.221 86.4186 345.849C90.3107 340.726 111.506 329.435 118.46 325.178C125.585 320.818 137.609 313.253 144.868 309.896Z" fill="#1E1E1E"/>
<path d="M0.540534 204.667C11.8808 202.027 27.2654 196.965 39.0895 193.695C62.9078 187.15 86.8368 181.014 110.867 175.292C206.251 152.459 302.754 134.584 399.988 121.739C468.539 112.949 539.526 106.35 608.646 108.984L611.389 109.562L611.458 110.077L610.847 110.676C563.265 112.36 506.975 119.428 460.115 126.72C357.04 142.992 255.228 166.443 155.42 196.904C106.264 211.945 47.1332 231.6 0.651248 253.714C0.134283 238.138 0.51926 220.421 0.540534 204.667Z" fill="#CA3B37"/>
<path d="M421.876 100.765C438.993 99.7407 461.417 100.705 478.619 100.942C486.5 101.05 511.86 102.046 519.359 103.48C505.32 105.468 484.912 106.259 470.188 107.605C439.7 110.447 409.269 113.87 378.912 117.873C276.964 131.476 175.94 151.284 76.4025 177.188L0.629241 197.775C0.150813 182.38 0.515335 164.713 0.521194 149.153C61.1876 138.246 122.09 128.695 183.182 120.506C261.187 110.232 343.313 101.914 421.876 100.765Z" fill="#CA3B37"/>
<path d="M284.676 289.551C289.268 289.857 331.485 315.49 334.46 319.494C335.196 324.222 321.173 369.264 318.475 375.592C315.3 378.107 311.302 380.263 307.784 382.325C294.881 389.888 282.076 397.652 269.084 405.057C266.557 406.497 265.233 407.096 262.407 406.203C255.078 402.823 214.738 384.796 210.892 381.218C209.022 377.246 213.295 327.352 214.562 320.296C218.972 317.143 235.4 310.556 241.102 308.133C255.473 302.025 270.208 295.318 284.676 289.551Z" fill="#1F4AC8"/>
<path d="M283.416 303.051C287.188 303.933 318.115 323.323 318.151 325.749C318.26 333.066 309.98 359.646 306.854 366.515C298.913 372.728 277.211 383.352 267.873 389C266.028 390.116 264.478 390.074 262.507 389.324C256.44 386.565 228.486 374.699 225.766 370.793C224.622 366.721 227.683 331.28 229.266 327.309C233.045 323.647 276.281 305.574 283.416 303.051Z" fill="#1E1E1E"/>
<path d="M608.555 654.312C742.088 646.653 875.917 662.874 1003.76 702.213C1033.79 711.255 1071.21 723.809 1100 735.918L1028.07 736.068C1019.81 736.071 1003.42 736.346 995.676 735.686C991.577 735.336 972.29 726.703 966.467 724.506C947.536 717.298 928.376 710.706 909.019 704.739C827.612 680.733 743.902 665.373 659.277 658.913C647.684 657.93 636.082 657.058 624.472 656.296C620.949 656.066 612.541 655.313 609.609 655.465L608.555 654.312Z" fill="#CA3B37"/>
<path d="M391.223 230.133C391.898 230.022 394.54 229.929 395 230.216C401.719 234.396 430.49 256.166 433.441 261.062C433.528 262.117 433.495 263.772 432.93 264.66C429.619 269.604 408.754 299.56 405.325 300.26C386.964 304.008 359.003 314.099 341.257 315.71C328.685 309.271 315.274 299.205 302.882 292.036C298.006 289.216 296.564 285.737 299.133 280.544C304.139 270.423 309.614 260.189 314.319 249.878C316.083 246.022 318.417 240.329 322.899 239.704C330.387 238.215 338.093 237.339 345.702 236.294L391.223 230.133Z" fill="#87C564"/>
<path d="M379.822 242.5C381.069 242.27 383.787 242.156 385.163 242.055C389.43 244.552 414.366 260.216 414.381 264.451C414.395 268.558 399.373 289.379 396.321 292.678C385.625 295.923 362.142 300.03 350.318 302.372C344.641 303.146 319.352 287.163 315.628 281.787C314.2 279.724 328.967 250.454 332.992 249.327C338.549 247.771 346.157 247.049 351.92 246.28L379.822 242.5Z" fill="#1E1E1E"/>
<path d="M394.94 308.479C400.003 309.532 419.767 326.434 424.261 330.349C427.677 333.325 408.704 367.758 406.583 368.552C397.26 372.044 371.123 385.237 362.59 386.013C359.25 384.173 332.011 365.367 331.121 362.053C331.102 356.238 341.345 327.472 343.229 324.03C345.705 319.504 389.759 309.669 394.94 308.479Z" fill="#FACE4A"/>
<path d="M387.613 320.27C391.468 319.838 394.924 323.047 397.59 325.432C404.238 331.379 413.716 332.948 407.316 343.422C404.098 348.874 400.558 360.162 395.136 363.485C388.716 367.419 377.209 371.811 369.946 374.321C365.693 372.696 349.401 361.029 347.308 356.734C346.981 351.872 354.138 334.776 355.723 330.164C357.022 326.38 381.822 321.664 387.613 320.27Z" fill="#1E1E1E"/>
<path d="M375.008 175.379C376.101 175.234 377.647 175.146 378.579 175.702C385.132 179.61 408.833 192.423 411.308 198.367C411.34 203.278 405.66 207.837 402.574 211.017C396.194 217.59 394.234 223.369 384.33 224.445C372.021 225.782 359.354 227.232 347.104 228.773C345.389 228.963 341.759 229.464 340.461 228.738C334.157 225.213 312.028 214.423 309.508 208.722C309.724 202.961 323.736 184.754 327.816 180.625C340.851 178.373 361.381 176.759 375.008 175.379Z" fill="#1F4AC8"/>
<path d="M370.959 185.601C373.201 185.252 375.062 186.357 376.725 187.533C383.664 192.44 396.028 199.471 385.894 208.432C384.65 209.52 381.562 212.671 379.881 213.107C370.496 215.542 358.845 215.416 349.204 216.48C343.872 216.685 336.262 211.533 332.153 208.263C325.34 202.842 335.059 193.182 339.163 189.326C347.02 187.632 362.463 186.423 370.959 185.601Z" fill="#1E1E1E"/>
<path d="M482.708 274.779L489.649 274.806C494.918 278.885 508.634 292.467 511.62 298.466C513.099 301.437 491.029 322.154 488.516 322.664C474.277 325.553 458.573 326.858 443.947 328.592C442.326 328.879 440.085 329.078 438.771 328.146C434.37 325.024 415.884 309.434 414.944 305.437C414.331 302.832 433.079 276.689 437.17 276.118C440.645 275.633 450.44 275.394 454.862 275.324C464.145 275.222 473.428 275.04 482.708 274.779Z" fill="#F2A241"/>
<path d="M457.299 284.5C464.792 284.236 472.29 284.132 479.787 284.186C482.792 287.026 491.347 294.342 492.64 298.553C493.396 301.013 486.748 306.623 485.027 308.655C479.014 315.752 473.38 315.544 464.731 316.791C459.326 317.708 453.909 318.556 448.482 319.334C444.739 316.712 433.798 307.949 433.631 303.677C433.448 299.021 443.085 288.235 446.311 284.811L457.299 284.5Z" fill="#1E1E1E"/>
<path d="M457.943 228.83C471.74 228.561 491.424 230 505.6 230.54C510.073 233.509 530.514 249.093 529.833 254.189C527.475 258.105 513.667 267.352 509.321 270.079C505.422 271.123 469.86 272.389 464.412 272.417C456.58 266.823 448.187 259.288 440.861 252.928C436.856 249.451 440.013 245.85 443.04 242.928C447.84 238.294 452.715 233.057 457.943 228.83Z" fill="#4C9CF7"/>
<path d="M468.009 237.446C473.648 237.347 493.623 239.012 499.288 239.755C508.341 246.656 516.32 255.985 500.519 261.581C490.939 262.208 479.947 262.955 470.423 263.088C457.757 252.669 455.003 248.583 468.009 237.446Z" fill="#1E1E1E"/>
<path d="M820.176 24.6113L864.08 24.669L864.075 85.3774L852.486 85.3385L852.487 70.1102L852.489 58.5281L831.822 58.4976C831.661 67.4413 831.656 76.387 831.806 85.3309L820.176 85.3345V24.6113Z" fill="#F9F7F2"/>
<path d="M831.796 33.8957L852.484 33.8848C852.489 37.213 852.758 46.5294 852.198 49.2425C845.493 49.1069 838.458 49.2147 831.726 49.2134C831.686 44.1074 831.709 39.0011 831.796 33.8957Z" fill="#1E1E1E"/>
<path d="M658.52 24.6348L703.032 24.6367L703.014 64.0698L681.862 64.0624L670.716 64.0435C670.62 71.1473 670.571 78.2517 670.568 85.3561L658.516 85.3421L658.52 24.6348Z" fill="#F9F7F2"/>
<path d="M670.685 33.9111L690.804 33.9023L690.864 54.7737L670.598 54.8136L670.685 33.9111Z" fill="#1E1E1E"/>
<path d="M449.265 183.648C457.78 183.661 481.678 186.009 490.547 187.124C495.758 190.82 503.384 197.86 507.888 202.316C513.235 207.605 496.673 216.18 492.907 218.591C488.446 219.639 459.099 218.57 453.425 218.151C447.645 214.227 441.388 208.692 435.797 204.462C428.117 198.65 444.812 187.323 449.265 183.648Z" fill="#FACE4A"/>
<path d="M461.112 193.977C466.739 194.04 476.064 195.324 481.882 195.977C484.735 198.239 489.155 201.759 487.97 205.732C486.151 208.304 483.55 208.588 480.485 209.419C474.071 209.49 467.632 209.174 461.22 208.92C452.186 201.876 449.624 199.137 461.112 193.977Z" fill="#1E1E1E"/>
<path d="M425.143 24.6172L470.454 24.6458L470.447 56.2717L459.251 56.2677C463.668 66.0086 469.245 75.5244 473.883 85.3406L458.409 85.3783C454.28 76.3722 448.022 65.0554 443.384 56.0475C441.876 53.2373 440.417 50.0292 439.025 47.1315L458.906 47.2039L458.882 33.6665L436.696 33.6039C436.485 50.7057 436.672 68.2231 436.667 85.3579L425.199 85.3282C424.946 65.2596 425.158 44.7243 425.143 24.6172Z" fill="#F9F7F2"/>
<path d="M408.83 24.615L420.5 24.6228L420.511 34.4166L420.526 85.3721L378.012 85.3282L378.034 24.6133L389.466 24.6463L389.458 74.6977L408.969 74.6846C409.013 57.9946 408.967 41.3045 408.83 24.615Z" fill="#F9F7F2"/>
<path d="M121.365 24.6342L132.818 24.6133L132.757 50.0317L152.71 50.0398L152.672 24.6432L164.283 24.6574C164.144 43.7976 164.97 66.6225 164.135 85.3858L152.661 85.3265C152.818 76.8431 152.7 67.9621 152.709 59.4479L132.862 59.3469L132.753 85.3717L121.359 85.3596L121.365 24.6342Z" fill="#F9F7F2"/>
<path d="M282.738 24.6457L326.875 24.6426C325.494 27.711 323.995 30.823 322.569 33.8803L294.321 33.8752C294.229 39.2126 294.288 44.7104 294.279 50.0622C304.234 49.9249 314.433 50.0446 324.408 50.0552L324.427 59.3872L296.887 59.3833C295.074 59.5344 295.777 59.1671 294.599 60.2788C293.763 63.7397 294.186 72.0928 294.274 76.0019L322.625 75.9788L327.02 85.3425L282.684 85.3396L282.738 24.6457Z" fill="#F9F7F2"/>
<path d="M169.736 24.6624L213.867 24.6387L209.522 33.8958L181.263 33.9146L181.215 50.022L211.495 50.0802L211.424 59.4198L184.131 59.3659C182.371 59.3755 182.886 59.118 181.71 60.0466C180.6 64.4898 181.128 71.3103 181.268 76.044L209.575 75.9811L213.931 85.3537L169.727 85.3485L169.736 24.6624Z" fill="#F9F7F2"/>
<path d="M707.511 24.6113C722.159 24.7762 737.037 24.6427 751.703 24.6432C750.347 27.7038 748.786 30.8579 747.344 33.8944L719.122 33.8778L719.102 50.0472L749.23 50.0371L749.251 59.4142L722.01 59.3602L720.026 59.4858C718.241 61.7016 719.041 72.589 719.09 76.0503C728.556 75.9881 738.022 75.9911 747.488 76.0594L751.719 85.3581L707.5 85.3405L707.511 24.6113Z" fill="#F9F7F2"/>
<path d="M615.386 24.6309L654.534 24.6604L650.231 33.4517C641.075 33.6494 631.302 33.4725 622.101 33.4576C622.002 38.7027 622.067 44.1608 622.052 49.4256L652.241 49.4562C652.098 62.6342 654.651 73.8158 647.621 85.4008L613.215 85.3476L608.824 76.3315L640.729 76.3762L640.741 59.6518C630.426 59.6049 620.111 59.7069 609.8 59.9579C610 52.1527 609.339 44.0438 610.021 36.2735C610.426 31.6686 612.912 28.3939 615.386 24.6309Z" fill="#F9F7F2"/>
<path d="M937.693 24.6447L976.824 24.6445C975.477 27.5629 973.941 30.5757 972.521 33.4756L944.338 33.4969L944.29 49.3909L974.663 49.4591C974.524 58.3224 975.517 69.2103 973.713 77.7014C973.419 79.0851 970.915 83.8676 970.133 85.3787L935.57 85.3554L931.117 76.3812L963.031 76.3507L963.03 59.6627C952.75 59.6294 942.47 59.7132 932.191 59.9143C932.11 51.0038 932.144 42.0927 932.294 33.1832L937.693 24.6447Z" fill="#F9F7F2"/>
<path d="M239.912 24.6467L279.092 24.6133C277.831 27.4608 276.166 30.6644 274.781 33.4977L246.622 33.5098L246.608 49.4285L276.787 49.4431C276.953 62.3479 279.04 74.7824 272.176 85.3744L237.724 85.3429L233.383 76.3446L265.289 76.3586L265.293 59.6548C255.004 59.6426 244.715 59.7224 234.427 59.8941C234.344 50.9514 234.386 42.0081 234.555 33.0667L239.912 24.6467Z" fill="#F9F7F2"/>
<path d="M495.472 162.803C526.094 168.206 533 162.847 554.524 187.465C550.216 189.967 543.573 192.668 538.853 194.737C534.832 196.383 503.937 189.836 498.113 188.084C495.749 187.374 483.27 175.651 480.711 172.98C484.311 169.739 491.35 165.397 495.472 162.803Z" fill="#F2A241"/>
<path d="M467.148 332.748C472.554 332.063 481.887 341.125 483.2 345.473C483.498 349.566 472.736 362.717 469.814 363.842C464.072 366.053 454.836 367.44 449.139 368.555C446.621 369.046 445.702 369.051 443.515 367.775C427.276 358.318 433.136 352.696 441.19 340.011C444.465 334.853 461.105 333.706 467.148 332.748Z" fill="#4C9CF7"/>
<path d="M329.801 24.6387L373.874 24.6436C372.812 27.3675 370.892 31.1622 369.613 33.8944L341.359 33.9013C341.243 47.9376 341.216 61.9746 341.277 76.0113L350.464 76.0022L374.074 76.0808L369.583 85.3933L329.785 85.344L329.801 24.6387Z" fill="#F9F7F2"/>
<path d="M754.504 24.6074L798.67 24.6544L794.255 33.8948L765.962 33.8668L765.94 76.0465L775.569 75.9991L798.625 76.0863L794.265 85.3865L754.512 85.3526L754.504 24.6074Z" fill="#F9F7F2"/>
<path d="M544.355 24.6779L556.599 24.6016C559.919 30.8258 563.453 37.7906 567.141 43.7331L577.358 24.6269L589.757 24.6565L574.757 52.9383C571.939 58.0636 573.069 78.2765 573.111 85.392L560.758 85.3418C560.822 78.4007 561.805 58.2497 559.46 53.2697C555.52 44.9034 548.831 33.2361 544.355 24.6779Z" fill="#F9F7F2"/>
<path d="M69.5898 24.6625L119.357 24.6426L114.87 33.4927L100.826 33.4553C100.637 44.6186 100.792 56.2253 100.784 67.4243L100.751 85.3604L89.2198 85.3463L89.2152 33.5639L73.9586 33.5066C72.4007 30.5663 71.0207 27.6608 69.5898 24.6625Z" fill="#F9F7F2"/>
<path d="M492.828 24.6501L542.466 24.6426L538.115 33.4733L523.987 33.4512L523.966 67.4246L523.878 85.37L512.398 85.3167L512.402 33.5235L497.005 33.4996C495.597 30.5574 494.204 27.6076 492.828 24.6501Z" fill="#F9F7F2"/>
<path d="M980.742 24.6641L1030.48 24.6743L1026.16 33.4676L1012 33.445C1011.84 44.4832 1011.97 55.824 1011.96 66.8869L1011.93 85.3855L1000.46 85.3433L1000.47 33.5214L985.072 33.5102L980.742 24.6641Z" fill="#F9F7F2"/>
<path d="M869.609 24.6588L881.136 24.6348C880.95 41.6756 881.069 59.0179 881.146 76.0621C890.044 75.9729 898.943 75.9864 907.84 76.1028L905.576 80.9242L903.469 85.3536L869.59 85.3284L869.609 24.6588Z" fill="#F9F7F2"/>
<path d="M324.925 639.965C340.958 638.39 342.578 653.544 339.942 665.906C338.974 670.446 335.873 673.114 331.908 675.17C315.486 677.042 314.341 659.735 317.62 647.831C318.725 643.816 321.312 641.701 324.925 639.965Z" fill="#F9F7F2"/>
<path d="M326.48 644.556C333.375 644.262 334.218 649.788 334.395 655.621C334.553 660.834 334.28 666.669 330.486 670.617C328.043 670.639 326.096 670.504 324.836 668.229C321.49 662.185 321.841 649.412 326.48 644.556Z" fill="#1E1E1E"/>
<path d="M139.061 639.908C154.96 638.703 156.556 653.205 153.973 665.642C153.018 670.237 150.038 673.001 146.036 675.176C140.026 675.733 134.39 674.398 132.132 668.415C128.522 658.853 128.778 644.719 139.061 639.908Z" fill="#F9F7F2"/>
<path d="M140.212 644.704C151.811 643.533 149.429 664.929 144.914 670.371C143.147 670.581 141.068 670.772 139.812 669.412C134.949 664.149 136.052 649.577 140.212 644.704Z" fill="#1E1E1E"/>
<path d="M286.841 639.973C299.429 638.952 305.646 643.557 298.278 656.039C304.885 664.645 306.015 670.998 294.294 675.22C292.77 675.303 290.107 675.552 288.732 675.354C282.355 674.438 277.195 670.713 278.149 663.626C278.853 658.398 279.868 660.263 282.869 656.743C282.959 651.984 272.028 646.221 286.841 639.973Z" fill="#F9F7F2"/>
<path d="M288.451 659.043C290.515 658.278 292.831 658.688 294.505 660.116C296.18 661.545 296.951 663.767 296.522 665.926C296.092 668.085 294.528 669.843 292.434 670.521C289.29 671.538 285.91 669.855 284.826 666.732C283.742 663.61 285.353 660.193 288.451 659.043Z" fill="#1E1E1E"/>
<path d="M289.064 644.39C291.574 643.616 294.249 644.948 295.146 647.417C296.043 649.887 294.847 652.626 292.426 653.644C290.749 654.35 288.82 654.075 287.407 652.927C285.995 651.78 285.33 649.948 285.676 648.162C286.023 646.375 287.325 644.925 289.064 644.39Z" fill="#1E1E1E"/>
<path d="M913.117 24.633L924.744 24.6309L924.696 85.3189L913.151 85.3356L913.117 24.633Z" fill="#F9F7F2"/>
<path d="M802.902 24.623L814.344 24.6418L814.32 85.3679L802.903 85.3492L802.902 24.623Z" fill="#F9F7F2"/>
<path d="M477.453 24.627L488.876 24.6667C489.102 44.728 488.948 65.2844 488.854 85.3685L477.46 85.3555L477.453 24.627Z" fill="#F9F7F2"/>
<path d="M966.37 403.569C986.982 400.302 991.126 425.423 974.882 432.052C971.923 432.539 968.614 432.684 965.747 431.671C962.336 430.486 959.573 427.935 958.12 424.629C954.2 415.906 957.679 407.381 966.37 403.569Z" fill="#F9F7F2"/>
<path d="M968.291 407.807C981.071 407.189 982.355 422.951 972.636 427.759C960.262 428.119 959.443 413.206 968.291 407.807Z" fill="#1E1E1E"/>
<path d="M833.759 217.183C853.848 216.773 855.246 242.821 837.457 246.442C818.438 247.486 815.598 221.146 833.759 217.183Z" fill="#F9F7F2"/>
<path d="M833.003 221.941C845.958 221.006 846.977 235.592 838.515 241.616C830.222 242.285 826.581 237.875 827.765 229.215C828.218 225.904 830.19 223.716 833.003 221.941Z" fill="#1E1E1E"/>
<path d="M876.854 356.312C897.314 354.759 899.184 380.28 883.077 385.199C880.169 385.39 875.986 385.623 873.52 384.125C861.451 376.792 863.206 360.4 876.854 356.312Z" fill="#F9F7F2"/>
<path d="M878.762 360.598C882.916 361.131 885.138 361.928 886.966 366.147C888.243 369.163 888.231 372.571 886.932 375.578C885.522 378.852 883.911 379.839 880.853 380.954C869.481 380.931 867.806 364.038 878.762 360.598Z" fill="#1E1E1E"/>
<path d="M852.68 263.326C873.8 261.964 874.969 287.596 858.856 292.233C838.451 294.04 835.514 268.664 852.68 263.326Z" fill="#F9F7F2"/>
<path d="M854.648 267.592C866.061 268.218 867.455 284.172 856.49 288.024C845.631 287.784 843.888 271.079 854.648 267.592Z" fill="#1E1E1E"/>
<path d="M791.56 310.143C811.103 310.552 811.978 336.403 793.982 339.436C774.773 339.678 772.857 313.331 791.56 310.143Z" fill="#F9F7F2"/>
<path d="M790.035 314.87C802.848 314.171 804.163 328.567 795.343 334.612C782.187 335.666 781.435 320.496 790.035 314.87Z" fill="#1E1E1E"/>
<path d="M773.363 356.263C792.973 355.057 795.461 379.942 778.873 385.274C775.059 385.398 772.54 385.699 768.945 383.823C761.499 379.939 759.703 369.266 763.868 362.396C766.181 358.58 769.113 357.304 773.363 356.263Z" fill="#F9F7F2"/>
<path d="M774.535 360.59C786.94 361.989 786.698 377.509 776.699 380.983C764.907 380.152 764.38 364.209 774.535 360.59Z" fill="#1E1E1E"/>
<path d="M820.357 263.367C828.136 262.823 834.503 264.733 836.896 272.762C839.555 281.684 835.876 289.544 827.041 292.21C806.79 294.271 803.355 269.197 820.357 263.367Z" fill="#F9F7F2"/>
<path d="M822.328 267.607C834.53 268.495 835.066 283.719 824.867 287.987C813.799 288.051 811.82 271.939 822.328 267.607Z" fill="#1E1E1E"/>
<path d="M911.304 310.156C931.186 310.357 931.977 336.34 914.088 339.444C894.655 339.493 893.021 313.597 911.304 310.156Z" fill="#F9F7F2"/>
<path d="M910.248 314.806C918.782 314.722 922.213 319.865 920.37 328.341C919.67 331.561 917.592 333.24 914.76 334.755C911.071 334.808 908.37 334.698 906.281 331.175C902.697 325.13 904.444 318.375 910.248 314.806Z" fill="#1E1E1E"/>
<path d="M741.021 356.292C761.118 354.898 763.373 380.057 746.986 385.234C743.847 385.411 739.671 385.612 737.056 383.883C725.438 376.2 727.478 360.114 741.021 356.292Z" fill="#F9F7F2"/>
<path d="M742.876 360.592C754.72 362.25 754.598 377.425 744.962 380.941C733.536 381.15 731.708 363.915 742.876 360.592Z" fill="#1E1E1E"/>
<path d="M777.346 217.218C797.907 216.546 799.231 242.595 781.66 246.42C762.906 247.655 759.298 221.948 777.346 217.218Z" fill="#F9F7F2"/>
<path d="M777.085 221.911C789.781 221.033 791.013 235.545 782.559 241.573C769.733 243.337 768.017 227.596 777.085 221.911Z" fill="#1E1E1E"/>
<path d="M627.041 449.271C647.044 447.873 649.2 472.835 633.326 478.201C629.741 478.41 626.902 478.685 623.449 477.076C615.837 473.526 613.68 463.129 617.464 456.067C619.674 451.941 622.616 450.534 627.041 449.271Z" fill="#F9F7F2"/>
<path d="M626.774 454.023C639.924 452.764 641.161 467.972 632.248 473.593C620.06 475.45 618.214 459.988 626.774 454.023Z" fill="#1E1E1E"/>
<path d="M933.851 356.279C954.385 354.915 956.17 380.44 939.965 385.186C926.242 386.179 919.32 376.614 924.392 363.251C925.868 359.361 929.998 357.413 933.851 356.279Z" fill="#F9F7F2"/>
<path d="M935.708 360.604C947.946 362.211 947.692 377.471 937.677 380.956C926.493 380.759 924.848 364.109 935.708 360.604Z" fill="#1E1E1E"/>
<path d="M167.595 639.945C170.716 639.701 173.19 639.636 176.118 640.945C179.097 642.278 182.101 646.091 180.006 649.232C174.883 650.058 174.297 645.103 169.76 644.236C165.098 643.344 164.21 653.018 163.935 655.804C171.124 649.266 177.821 651.898 181.912 659.888C182.996 669.549 177.615 678 166.004 675.142C163.019 673.994 159.866 670.446 158.915 667.539C155.528 657.179 156.388 644.382 167.595 639.945Z" fill="#F9F7F2"/>
<path d="M167.921 656.97C177.508 656.186 178.381 666.094 171.961 670.879C163.496 670.968 162.266 662.37 167.921 656.97Z" fill="#1E1E1E"/>
<path d="M231.561 639.929C233.35 639.776 235.736 639.717 237.511 640.11C240.647 640.807 243.378 642.723 245.1 645.435C253.867 659.336 240.529 688.051 224.513 670.396C223.566 669.352 224.29 666.651 224.709 665.41C231.5 665.925 229.234 670.57 235.204 670.944C238.95 669.788 241.645 663.764 240.713 660.341C238.237 659.96 238.492 661.954 237.016 662.344C221.758 666.376 216.536 645.982 231.561 639.929Z" fill="#F9F7F2"/>
<path d="M232.171 644.631C241.149 644.029 243.033 652.656 237.024 658.089C227.851 659.702 226.902 650.141 232.171 644.631Z" fill="#1E1E1E"/>
<path d="M701.223 356.827C706.657 356.622 716.715 355.534 720.602 359.841C726.227 366.075 725.331 376.872 719.732 382.707C714.458 386.043 706.422 385.133 700.418 384.528C700.127 379.759 699.244 359.885 701.223 356.827Z" fill="#F9F7F2"/>
<path d="M705.962 361.091C708.387 361.053 711.856 360.952 714.029 362.06C720.571 365.396 719.248 373.163 716.431 378.547C712.87 380.947 710.119 380.457 705.886 380.429C705.851 373.983 705.876 367.536 705.962 361.091Z" fill="#1E1E1E"/>
<path d="M780.615 263.966C790.521 263.433 803.116 261.654 804.19 275.386C804.646 281.22 804.04 284.716 800.302 289.179C794.998 293.131 786.909 292.016 780.54 291.646C779.813 284.459 779.825 271.059 780.615 263.966Z" fill="#F9F7F2"/>
<path d="M785.948 268.101C787.795 268.078 791.576 268.01 793.216 268.679C800.708 271.732 799.246 279.904 796.465 285.529C792.899 287.923 790.098 287.456 785.859 287.464L785.948 268.101Z" fill="#1E1E1E"/>
<path d="M321.172 687.823C325.89 687.593 330.318 688.835 333.518 692.451C335.885 695.155 337.052 698.705 336.751 702.287C336.171 708.859 329.508 715.458 322.312 711.596C323.115 712.027 308.891 716.966 311.826 702.653C314.16 691.27 321.625 697.842 327.444 694.261C331.528 696.48 326.325 706.919 327.903 709.548C333.047 707.052 336.028 700.614 332.197 695.578C329.383 691.88 326.857 691.446 322.536 690.79C300.096 693.013 305.518 721.445 326.56 716.945C329.606 716.294 333.911 712.131 336.893 712.888L337.087 713.747C331.412 722.272 313.851 722.582 308.475 714.595C300.161 702.243 307.332 689.822 321.172 687.823Z" fill="#F9F7F2"/>
<path d="M319.235 697.776C320.922 697.717 320.982 697.75 322.55 698.35C326 701.752 323.267 706.878 320.518 709.789C318.807 709.835 318.75 709.825 317.186 709.181C313.9 705.674 316.64 700.794 319.235 697.776Z" fill="#1E1E1E"/>
<path d="M888.45 468.804C889.876 464.721 892.099 453.086 894.2 450.141C895.844 449.566 901.163 449.297 901.496 450.818C903.038 457.865 902.359 467.421 901.862 474.714C901.739 476.517 900.982 477.823 899.938 478.549L898.413 477.99C895.993 475.212 896.902 462.917 896.907 458.446L896.391 458.126C894.351 463.516 893.604 475.106 889.579 478.322C883.998 478.859 881.593 461.682 880.237 456.82C880.21 460.227 880.461 474.801 879.488 477.342C878.021 478.491 878.824 478.225 877.022 478.245C873.665 475.305 874.11 452.266 876.009 449.782C878.621 449.637 879.987 449.46 882.556 450.011C884.695 452.092 887.508 465.109 888.45 468.804Z" fill="#F9F7F2"/>
<path d="M702.469 542.734C706.511 542.49 709.105 542.337 710.596 546.65C712.216 551.337 713.239 557.06 714.414 561.9C715.847 557.778 718.135 546.431 720.078 543.285C721.902 542.395 724.578 542.555 726.507 543.074C728.372 543.483 728.357 548.133 728.272 549.7C727.947 555.706 729.311 565.524 726.876 570.948C725.47 571.758 726.206 571.629 724.59 571.314C722.03 568.494 722.915 555.95 722.824 551.115L722.184 551.131C721.41 554.796 720.565 558.445 719.649 562.077C718.891 564.975 717.095 572.692 713.034 571.413C710.521 568.747 707.776 554.978 706.341 550.277C706.013 554.839 706.57 566.593 705.543 570.262C704.207 571.433 704.778 571.268 703.24 571.389C701.179 570.057 700.752 566.577 700.764 564.27C700.801 557.583 700.46 550.678 701.256 544.05C701.256 544.05 702.362 542.85 702.469 542.734Z" fill="#F9F7F2"/>
<path d="M846.46 375.736C847.343 372.864 850.55 357.771 852.714 357.006C862.777 353.45 860.254 367.806 860.195 373.314C860.168 375.821 860.286 382.949 859.417 384.74C857.6 385.455 858.351 385.319 856.328 384.975C853.763 382.387 854.946 369.927 854.902 365.948L854.521 365.141C852.787 368.212 851.32 381.514 848.197 385.028C847.709 385.577 847.025 385.285 846.061 385.193C841.642 382.484 839.869 369.326 838.132 363.231C838.161 369.005 838.889 381.081 836.239 385.558L835.162 385.691C831.967 381.991 832.08 361.161 833.639 356.869C835.999 356.678 838.759 356.774 841.161 356.798C843.127 362.171 844.964 370.041 846.46 375.736Z" fill="#F9F7F2"/>
<path d="M745.495 236.673C746.471 233.325 749.746 220.408 751.015 218.224C753.136 217.185 757.179 217.236 758.753 219.236C759.581 223.85 760.515 244.189 756.53 246.529L755.353 246.06C753.172 243.359 754.228 231.306 753.673 226.178C753.205 226.201 753.398 226.08 753.247 226.523C751.534 231.554 750.356 243.029 746.453 246.392C741.188 247.391 738.32 228.462 737.217 224.166C737.061 228.593 737.41 241.347 736.551 245.11C735.351 246.427 735.942 246.148 734.349 246.44L733.182 245.483C731.233 241.428 730.742 220.44 733.585 217.651C740.754 217.412 741.272 219.289 742.926 226.334C743.741 229.809 744.552 233.226 745.495 236.673Z" fill="#F9F7F2"/>
<path d="M878.63 542.705C882.151 542.558 884.776 542.21 886.242 545.933C888.139 550.748 889.178 556.815 890.526 561.895C891.343 558.673 893.977 545.452 896.962 542.946C897.749 542.285 901.79 542.828 903.058 543.419C904.923 545.93 905.048 569.096 902.179 571.637L900.982 571.327C897.362 567.612 899.47 558.284 898.673 551.218C896.948 551.595 895.462 573.226 889.119 571.666C886.528 568.884 883.357 553.565 882.212 548.982C882.131 553.294 882.257 566.569 881.684 569.979C880.294 571.503 880.932 571.24 879.176 571.574C875.015 568.376 877.357 551.861 876.958 546.746C876.803 544.76 877.317 543.967 878.63 542.705Z" fill="#F9F7F2"/>
<path d="M615.805 403.685C621.538 403.534 633.888 402.054 636.402 408.008C639.063 414.311 635.303 417.189 630.378 419.091C634.065 422.814 636.658 425.521 636.949 430.97C636.204 432.74 636.723 432.235 635.136 432.92C633.472 432.433 632.746 431.392 631.7 430.095C629.281 426.187 626.465 419.537 621.232 419.947C616.732 423.397 623.353 430.61 616.87 432.393C616.273 432.248 615.277 432.183 615.072 431.601C613.451 427.018 612.746 406.667 615.805 403.685Z" fill="#F9F7F2"/>
<path d="M619.887 407.945C623.931 407.878 629.077 406.985 631.196 410.936C631.283 412.917 631.07 413.203 630.11 414.965C625.998 415.839 623.962 415.796 619.828 415.848L619.887 407.945Z" fill="#1E1E1E"/>
<path d="M770.14 496.692C777.236 496.404 793.007 494.57 789.7 507.356C789.059 509.83 785.71 511.254 783.543 512.221C786.503 515.065 792.115 521.502 788.972 525.682L787.632 525.636C785.648 524.66 785.272 523.886 784.037 522.121C781.459 518.14 779.722 512.841 774.194 512.906C770.667 515.68 774.634 520.957 771.594 525.002C769.635 525.536 770.423 525.582 768.51 525.05C765.899 522.494 766.869 502.436 767.592 497.915C767.721 497.108 769.417 496.888 770.14 496.692Z" fill="#F9F7F2"/>
<path d="M772.898 500.864C776.872 500.868 781.707 500.083 784.091 503.632C784.355 505.627 784.039 506.08 783.216 507.953C779.008 508.748 777.003 508.741 772.812 508.772L772.898 500.864Z" fill="#1E1E1E"/>
<path d="M673.359 542.776C679.112 542.58 691.846 540.737 694.594 547.365C697.888 555.312 689.334 557.104 688.556 558.324C691.816 561.366 695.134 565.224 694.96 569.992C694.124 571.602 694.614 571.235 693.195 571.804C691.518 571.202 691.351 571.031 690.118 569.732C688.241 566.637 683.742 558.405 679.932 558.18C676.31 561.099 679.367 567.935 675.728 571.367C673.963 571.564 674.691 571.801 673.409 570.869C671.302 566.722 670.99 545.895 673.359 542.776Z" fill="#F9F7F2"/>
<path d="M677.829 546.944C682.784 546.891 692.689 545.892 688.078 554.054C683.975 554.674 681.868 554.739 677.801 554.789L677.829 546.944Z" fill="#1E1E1E"/>
<path d="M796.928 356.808C802.289 356.627 808.237 356.041 813.468 357.219C818.25 358.296 820.199 363.143 818.637 367.544C817.728 370.102 814.762 371.211 812.465 372.178C815.02 374.733 820.788 380.975 818.908 384.732C816.72 385.79 816.022 385.522 814.333 384.106C812.301 380.823 808.012 372.647 804.002 372.181C799.981 374.821 803.654 383.81 799.359 385.341C797.165 384.946 797.885 385.354 796.438 383.959C795.593 380.936 795.606 360.451 796.928 356.808Z" fill="#F9F7F2"/>
<path d="M801.879 360.954C805.472 360.939 810.303 360.157 812.743 363.017C813.482 364.959 813.179 365.536 812.75 367.564C809.14 368.878 805.639 368.735 801.844 368.798L801.879 360.954Z" fill="#1E1E1E"/>
<path d="M871.61 310.733C877.374 310.557 889.822 308.984 892.474 315.014C895.172 321.149 891.19 324.16 886.447 326.171C889.252 328.826 894.391 334.507 892.948 338.552C890.762 340.098 890.172 339.529 888.332 338.128C873.301 313.183 877.669 335.704 873.857 339.347C872.09 339.566 872.878 339.744 871.396 338.869C868.758 333.494 870.074 318.4 870.491 312.148C870.491 312.148 871.495 310.879 871.61 310.733Z" fill="#F9F7F2"/>
<path d="M875.913 314.858C879.368 314.868 884.675 314.2 886.862 317.185C887.464 319.171 887.164 319.694 886.518 321.708C883.318 322.888 879.261 322.806 875.848 322.838L875.913 314.858Z" fill="#1E1E1E"/>
<path d="M956.819 356.861C962.705 356.616 975.599 354.828 978.392 360.967C981.192 367.118 977.283 370.153 972.466 372.163C975.089 374.749 980.491 380.718 979.058 384.569C977.14 385.802 976.278 385.48 974.517 384.433C972.041 380.253 968.633 372.28 963.106 373.009C960.111 375.702 962.789 378.938 961.612 383.694C959.94 385.783 958.408 385.922 956.489 383.944C955.559 381.433 955.748 360.382 956.819 356.861Z" fill="#F9F7F2"/>
<path d="M961.9 360.956C965.364 360.953 970.558 360.18 972.798 363.068C973.506 364.962 973.184 365.569 972.74 367.54C969.205 368.889 965.602 368.739 961.859 368.801L961.9 360.956Z" fill="#1E1E1E"/>
<path d="M876.7 263.929C882.613 263.653 895.689 261.787 898.455 268.083C901.116 274.139 897.333 277.28 892.433 279.102C893.701 280.407 894.894 281.783 896.006 283.224C897.875 285.666 901.339 289.944 898.047 292.179C895.689 292.41 896.607 292.605 894.572 291.49C892.152 287.457 888.568 279.46 883.266 279.891C879.726 283.131 883.567 288.313 880.678 291.924C879.248 292.476 876.634 292.278 876.504 290.92C875.871 284.299 875.298 270.05 876.7 263.929Z" fill="#F9F7F2"/>
<path d="M881.907 267.965C885.459 267.944 890.613 267.16 892.879 270.199C893.455 272.142 893.248 272.577 892.73 274.568C888.948 275.884 885.752 275.712 881.809 275.753L881.907 267.965Z" fill="#1E1E1E"/>
<path d="M857.595 217.733C863.256 217.572 875.727 216.033 878.36 221.88C881.155 228.086 877.41 231.168 872.48 233.081C875.798 236.557 880.227 241.534 878.455 246.639L876.588 246.981C875.767 246.459 874.85 245.464 874.122 244.749C872.118 241.478 868.197 234.044 864.084 233.709C860.319 236.342 863.174 242.506 859.962 246.15C858.231 246.579 858.959 246.611 857.219 245.85C854.904 241.292 856.08 224.71 856.51 219.179C856.51 219.179 857.479 217.888 857.595 217.733Z" fill="#F9F7F2"/>
<path d="M861.864 221.895C865.863 221.862 870.415 221.039 872.979 224.417C873.392 226.509 873.029 227.095 872.256 229.058C867.935 229.651 866.08 229.77 861.742 229.806L861.864 221.895Z" fill="#1E1E1E"/>
<path d="M574.883 356.786C580.696 356.6 594.042 354.845 596.602 361.239C598.99 367.203 595.167 370.221 590.494 372.127C593.191 374.849 596.827 379.318 597.49 383.164C596.987 384.914 597.493 384.263 595.928 385.185C593.529 385.237 594.231 385.567 592.562 384.374C590.339 380.769 586.671 373.477 582.102 373.109C577.6 376.038 581.397 384.609 577.32 386.065C575.78 385.496 575.663 385.211 574.511 383.949C573.632 380.912 573.698 360.322 574.883 356.786Z" fill="#F9F7F2"/>
<path d="M579.905 360.952C583.914 360.913 588.337 360.058 590.961 363.363C591.421 365.369 591.176 365.791 590.491 367.766C587.077 368.867 583.356 368.746 579.785 368.785L579.905 360.952Z" fill="#1E1E1E"/>
<path d="M705.167 449.794C710.957 449.604 723.75 447.94 726.413 453.962C729.218 460.305 725.158 463.264 720.298 465.174C723.507 468.019 728.096 473.675 726.81 478.148L725.809 478.701C724.246 478.539 724.319 478.541 722.913 477.813C721.004 474.902 715.673 465.548 712.57 465.017C708.313 467.172 711.371 475.313 707.114 478.558L705.959 478.173C703.232 474.66 703.114 452.933 705.167 449.794Z" fill="#F9F7F2"/>
<path d="M709.866 453.93C713.866 453.879 718.687 452.998 721.047 456.59C721.363 458.605 721.009 459.128 720.208 461.042C716.007 461.655 713.895 461.726 709.742 461.762L709.866 453.93Z" fill="#1E1E1E"/>
<path d="M654.687 263.887C659.418 263.694 673.678 261.943 676.237 267.591C679.018 273.729 675.943 276.875 670.514 279.203L670.976 279.675C673.415 282.191 677.503 286.994 677.43 290.647C676.034 293.009 674.442 292.766 672.468 291.324C670.006 287.232 666.584 279.261 661.268 280.095C658.071 282.901 660.623 285.998 659.405 291.079C658.009 292.447 657.384 293.365 655.517 292.373C653.161 288.699 653.765 268.215 654.687 263.887Z" fill="#F9F7F2"/>
<path d="M659.9 267.985C663.906 267.935 668.396 267.074 670.996 270.414C671.428 272.429 671.176 272.836 670.436 274.795C666.43 275.761 663.843 275.716 659.758 275.79L659.9 267.985Z" fill="#1E1E1E"/>
<path d="M133.125 603.368C137.444 603.141 145.713 602.317 149.082 605.136C154.706 609.842 153.868 619.205 149.834 624.522C144.27 627.983 139.3 627.108 132.886 626.707C132.478 622.155 132.311 607.519 133.125 603.368Z" fill="#F9F7F2"/>
<path d="M137.499 607.018C148.454 606.723 150.326 611.955 146.547 621.499C143.467 623.465 141.076 623.2 137.48 623.223L137.499 607.018Z" fill="#1E1E1E"/>
<path d="M408.26 640.004C421.775 639.053 424.954 644.674 419.274 655.825C421.603 658.914 424.741 663.193 423.873 667.29C422.56 673.493 413.082 676.547 407.454 675.373C402.816 674.406 399.215 668.936 400.35 664.236C401.501 662.671 400.978 662.899 402.528 662.423C403.813 663.005 404.334 664.129 405.08 665.333C406.826 668.711 407.74 671.368 412.089 670.566C415.506 669.936 417.552 667.882 417.435 664.348C417.188 656.924 409.522 660.318 406.206 657.234C406.112 653.385 412.23 654.563 415.947 650.514C416.839 647.757 414.923 645.554 412.438 644.396C408.162 642.402 406.471 649.333 403.171 650.582C395.31 648.254 404.24 641.617 408.26 640.004Z" fill="#F9F7F2"/>
<path d="M353.442 639.983C375.623 638.54 363.726 654.857 364.357 655.74C370.805 664.755 372.043 670.464 359.77 674.957C357.796 675.679 354.434 675.806 352.684 675.44C350.259 674.932 348.141 673.467 346.81 671.377C345.43 669.256 344.823 666.782 345.304 664.283C346.433 662.701 345.918 662.929 347.46 662.421C348.725 662.976 349.286 664.093 349.917 665.273L350.103 665.626C352.795 670.745 358.924 673.335 361.43 668.133C366.289 658.046 354.7 659.263 351.813 657.987C350.997 656.431 351.146 657.13 351.434 655.285C353.612 652.77 362.679 654.535 360.675 647.708C360.279 646.393 359.334 645.314 358.084 644.747C352.676 642.305 351.742 649.202 348.133 650.56C346.471 650.122 347.002 650.28 345.658 648.791C344.577 643.939 349.586 641.434 353.442 639.983Z" fill="#F9F7F2"/>
<path d="M825.213 403.377C826.658 403.237 826.977 403.289 828.434 403.462C831.809 405.567 839.896 419.145 842.683 423.294C842.589 417.791 841.814 407.587 844.36 402.973C846.221 403.667 846.811 403.954 847.25 406.163C848.363 411.766 849.13 427.768 846.684 432.494C846.173 432.501 844.417 432.48 844.077 432.319C839.794 430.285 831.983 416.416 829.579 412.626C829.649 417.525 830.499 428.871 827.485 432.689L826.722 432.724C822.874 429.165 823.266 407.559 825.213 403.377Z" fill="#F9F7F2"/>
<path d="M752.285 402.914C756.698 404.233 763.7 418.039 767.609 422.866C767.559 418.669 767.149 408.217 768.211 404.503C769.478 403.15 768.733 403.493 770.449 403.292C774.867 405.837 772.764 425.001 772.608 429.808C772.55 431.601 771.155 432.208 769.899 433.065C765.393 430.994 757.776 417.603 754.596 412.793C754.652 417.234 755.077 427.882 753.871 431.504C752.55 432.55 753.276 432.308 751.636 432.309C747.223 429.135 749.276 411.194 749.617 405.643C749.706 404.192 751.182 403.567 752.285 402.914Z" fill="#F9F7F2"/>
<path d="M816.563 309.779C820.067 311.247 828.98 326.249 831.69 330.26C831.575 324.789 831.449 319.178 831.55 313.703C831.593 311.391 832.434 310.977 834.36 310.45C837.419 311.389 836.954 313.664 836.951 316.733C836.945 323.555 837.249 330.549 836.637 337.337C836.514 338.696 834.357 339.468 833.411 339.954C829.306 337.589 821.628 324.36 818.577 319.588C818.587 322.959 818.832 334.998 818.258 337.601C816.882 339.232 817.584 338.802 815.653 339.351C813.365 338.386 813.255 337.421 813.209 334.974C813.07 327.584 812.892 320.087 813.319 312.709C813.393 311.437 815.552 310.419 816.563 309.779Z" fill="#F9F7F2"/>
<path d="M625.37 217.232C631.221 217.048 640.558 218.788 638.983 226.794C636.233 229.104 631.88 221.75 627.709 221.521C617.749 220.898 615.822 236.826 623.231 241.224C626.944 243.428 636.701 240.915 634.574 236.037C632.578 234.612 630.535 235.918 626.846 234.663C627.629 231.07 630.948 230.193 634.497 230.298C636.024 230.344 637.464 231.02 638.474 232.167C640.928 234.933 640.025 238.937 639.698 242.436C614.092 258.619 601.658 222.204 625.37 217.232Z" fill="#F9F7F2"/>
<path d="M722.094 263.379C727.742 262.916 737.129 263.663 736.852 271.278C735.73 273.01 736.365 272.529 734.508 273.162C731.123 272.07 731.742 270.405 729.622 269.031C718.239 261.648 712.375 280.998 720.69 286.738C724.031 289.044 730.41 288.295 732.779 284.853C732.956 280.761 728.8 281.249 725.758 281.121C724.84 279.659 724.884 278.837 725.998 277.639C728.823 276.836 732.962 276.548 735.687 277.78C737.031 278.385 738.062 279.524 738.532 280.921C740.029 285.33 736.226 289.989 731.982 291.425C717.432 296.345 706.417 284.398 712.714 270.415C714.586 266.258 717.84 264.748 722.094 263.379Z" fill="#F9F7F2"/>
<path d="M864.351 403.548C867.574 403.178 871.558 402.97 874.585 404.28C877.921 405.725 881.286 408.575 879.24 412.472C874.336 414.966 874.943 407.968 868.678 407.535C856.831 406.714 856.688 429.693 868.996 428.002C871.836 427.612 873.577 427.206 875.494 424.961C875.888 423.222 875.967 423.959 874.969 422.2C873.219 420.94 871.008 421.204 868.72 421.143C867.973 419.665 868.057 419.424 868.618 418.027C871.491 416.214 877.132 417.189 880.659 417.492C880.799 419.328 881.391 425.351 880.708 426.946C877.986 433.304 867.609 433.485 862.308 431.225C858.852 429.789 856.139 426.992 854.81 423.492C851.496 414.765 855.739 406.791 864.351 403.548Z" fill="#F9F7F2"/>
<path d="M642.685 356.327C647.965 356.087 658.845 357.243 656.54 365.004C651.377 369.007 650.702 358.946 644.065 360.531C636.565 362.358 636.328 368.736 637.295 374.865C638.851 384.726 655.34 381.044 652.85 375.203C651.237 374.124 647.608 374.267 645.26 374.058C645.057 372.138 645.06 371.83 646.392 370.618C654.275 368.484 659.726 368.976 657.802 379.248C656.511 386.144 641.831 386.586 637.611 383.649C627.036 376.291 628.815 359.901 642.685 356.327Z" fill="#F9F7F2"/>
<path d="M524.119 356.311C529.555 355.855 541.912 358.958 536.87 365.737C531.857 367.35 532.491 360.368 525.976 360.476C517.716 360.613 516.407 371.566 519.179 377.406C521.433 382.153 530.173 381.956 533.62 377.956C534.032 376.255 534.12 376.979 533.205 375.329C531.358 373.963 529.433 374.272 527.021 374.25C526.255 373.258 526.341 372.929 526.275 371.687C528.329 368.959 535.482 369.757 538.27 371.038C539.589 373.513 538.908 378.669 538.672 381.466C513.361 397.537 500.653 361.562 524.119 356.311Z" fill="#F9F7F2"/>
<path d="M851.274 495.762C851.814 495.881 853.874 496.535 854.109 496.85C857.324 501.168 866.821 520.657 863.837 525.122L862.303 525.365C857.745 522.77 861.255 518.636 853.519 518.167L846.378 518.418C845.304 521.267 844.398 525.975 840.847 525.172C840.229 524.512 838.953 523.418 839.307 522.41C841.411 516.41 846.476 499.284 851.274 495.762Z" fill="#F9F7F2"/>
<path d="M851.9 502.678C853.283 504.85 856.138 511.265 855.269 513.664L853.345 514.034C851.204 514.101 849.942 514.516 848.734 512.704C848.58 510.064 850.803 505.536 851.9 502.678Z" fill="#1E1E1E"/>
<path d="M693.244 263.119C700.89 263.057 701.541 273.775 704.716 279.466C706.169 282.072 708.437 289.09 707.355 291.873C706.072 292.5 705.983 292.358 704.593 292.125C700.897 289.227 703.415 285.639 698.375 285.261L689.495 285.249C689.211 285.976 688.917 286.699 688.612 287.418C687.382 290.312 686.718 291.562 683.607 292.828L682.784 292.295C681.365 287.989 690.315 266.521 693.244 263.119Z" fill="#F9F7F2"/>
<path d="M694.802 270.021C696.236 271.154 698.931 278.507 698.749 280.602L697.301 280.938C694.882 281.082 693.231 281.702 691.759 279.627C691.551 277.345 693.873 272.488 694.802 270.021Z" fill="#1E1E1E"/>
<path d="M603.505 263.328C606.887 263.116 610.387 263.095 613.497 264.639C616.364 266.062 619.334 269.777 617.127 272.851C611.593 273.569 611.779 267.283 605.98 267.326C595.146 267.405 594.788 289.281 606.815 288.09C609.643 287.81 611.59 287.159 613.478 284.967C613.935 283.086 614.037 283.854 613.143 282.219C611.426 280.978 609.507 281.366 607.256 281.438C606.545 280.622 606.485 280.08 606.189 279.05C607.229 276.248 613.402 276.606 615.611 277.464C623.444 280.506 619.452 289.464 612.607 291.542C597.995 295.978 587.551 284.351 593.708 270.431C595.632 266.109 599.291 264.55 603.505 263.328Z" fill="#F9F7F2"/>
<path d="M654.929 216.953C662.019 217.475 664.125 232.008 667.297 237.511C668.585 239.745 670.032 245.334 666.609 246.464C664.69 245.746 664.007 243.994 663.069 242.203C661.273 238.775 661.129 239.247 657.648 239.143L650.41 239.214C649.289 242.371 648.915 244.892 646.129 246.38C644.219 245.924 644.906 246.315 643.536 244.896C642.573 242.045 651.697 219.151 654.929 216.953Z" fill="#F9F7F2"/>
<path d="M655.894 223.826C657.377 225.42 660.172 232.497 659.286 234.688L657.43 234.969C655.27 235.017 653.909 235.533 652.697 233.683C652.484 231.467 654.962 226.313 655.894 223.826Z" fill="#1E1E1E"/>
<path d="M633.309 263.135C637.064 263.115 638.577 264.566 639.959 268.149C641.959 273.334 649.034 286.879 647.402 291.793C646.165 292.464 646.047 292.317 644.663 292.136C640.941 289.414 643.437 285.542 638.222 285.247L629.352 285.276C628.322 288.151 627.874 291.243 624.943 292.407C623.377 291.886 623.467 291.899 622.41 290.596C622.216 286.741 630.579 266.246 633.309 263.135Z" fill="#F9F7F2"/>
<path d="M634.987 269.561C636.201 271.897 639.218 278.219 638.532 280.642L636.54 280.989C634.29 281.078 632.913 281.678 631.713 279.681C631.523 277.461 634.006 272.181 634.987 269.561Z" fill="#1E1E1E"/>
<path d="M683.486 449.051C690.788 449.095 691.695 460.246 694.797 465.733C696.26 468.32 698.288 474.847 697.452 477.761L696.203 478.291C690.222 477.362 694.729 471.649 687.633 471.188L679.439 471.183C678.542 473.605 677.771 476.521 675.883 478.126C674.084 478.415 674.819 478.498 673.076 477.563C672.766 476.999 672.314 476.449 672.387 475.989C673.174 471.027 680.518 451.867 683.486 449.051Z" fill="#F9F7F2"/>
<path d="M684.894 455.92C686.361 457.193 689.161 464.626 688.29 466.712L686.415 466.96C684.324 466.992 683.064 467.409 681.724 465.859C681.408 463.369 683.805 458.679 684.894 455.92Z" fill="#1E1E1E"/>
<path d="M553.232 356.15C556.702 356.071 558.198 356.909 559.6 360.383C561.733 365.669 568.919 379.691 567.403 384.741C565.857 385.436 566.458 385.26 564.66 385.118C560.898 382.363 563.391 378.475 558.192 378.22L549.312 378.24C548.315 381.236 547.117 385.439 543.442 385.874C540.107 382.75 550.669 359.061 553.232 356.15Z" fill="#F9F7F2"/>
<path d="M554.891 362.961C556.363 364.714 559.327 371.46 558.318 373.777L556.48 373.986C554.365 374.039 553.126 374.494 551.747 372.897C551.408 370.421 553.796 365.718 554.891 362.961Z" fill="#1E1E1E"/>
<path d="M651.514 542.04C658.023 541.942 659.664 551.937 662.157 557.006C663.74 560.226 667.861 569.393 663.859 571.5C658.981 570.614 662.075 564.757 656.484 564.198L647.508 564.171C645.98 568.098 645.7 569.71 642.014 571.858L640.92 571.512C639.22 567.124 648.357 545.129 651.514 542.04Z" fill="#F9F7F2"/>
<path d="M652.874 548.945C654.255 550.374 657.068 557.705 656.455 559.662L654.868 559.944C652.496 560.03 651.277 560.613 649.829 558.632C649.542 556.186 651.863 551.55 652.874 548.945Z" fill="#1E1E1E"/>
<path d="M578.818 309.842C580.011 310.023 581.003 310.375 582.15 310.732C585.669 314.051 590.121 329.125 592.632 334.237C593.447 335.896 593.356 336.941 592.639 338.432C590.868 339.513 591.554 339.447 589.807 339.219C586.016 335.931 588.233 332.684 582.899 332.168L574.423 332.239C573.567 334.49 572.691 337.49 571.01 339.079C569.198 339.545 569.977 339.629 568.149 338.601C566.069 335.079 575.629 312.732 578.818 309.842Z" fill="#F9F7F2"/>
<path d="M579.901 316.906C581.244 318.413 584.028 325.665 583.414 327.637L581.824 327.921C579.589 328.014 578.245 328.576 576.849 326.726C576.454 324.195 578.79 319.666 579.901 316.906Z" fill="#1E1E1E"/>
<path d="M612.272 356.147C612.835 356.131 614.887 356.104 615.218 356.343C619.335 359.309 628.199 380.775 626.254 384.919L624.808 385.365C619.541 384.218 623.161 378.642 617.274 378.229L608.319 378.243C607.541 380.547 606.733 383.441 604.985 385.082C603.318 385.569 604.113 385.619 602.52 384.927C601.996 384.248 601.308 383.653 601.408 382.945C602.12 377.896 609.614 359.193 612.272 356.147Z" fill="#F9F7F2"/>
<path d="M613.874 362.902C615.394 364.689 618.168 371.421 617.386 373.728L615.559 373.979C613.393 374.054 612.048 374.591 610.751 372.748C610.434 370.412 612.85 365.523 613.874 362.902Z" fill="#1E1E1E"/>
<path d="M597.655 541.949C601.802 542.244 602.937 544.235 604.446 548.329C606.903 554.997 611.563 562.854 611.78 569.951C611.801 570.646 610.756 571.025 610.193 571.363C607.693 570.918 607.295 569.247 606.098 567.166C604.372 564.167 604.923 564.433 601.697 564.196L593.496 564.171C592.266 567.306 591.793 570.985 588.197 571.182C586.517 570.207 587.121 570.877 586.332 569.091C586.65 565.122 594.556 544.878 597.655 541.949Z" fill="#F9F7F2"/>
<path d="M598.935 548.85C600.356 550.663 603.191 557.431 602.351 559.727L600.585 559.98C598.396 560.051 597.014 560.601 595.739 558.714C595.473 556.242 597.85 551.541 598.935 548.85Z" fill="#1E1E1E"/>
<path d="M661.676 310.732C666.256 310.574 676.692 309.55 680.261 312.583L680.138 313.364C676.38 315.704 669.382 315.127 664.902 315.064L664.828 321.997C667.9 321.98 679.596 320.787 679.422 324.706C675.304 328.952 667.62 324.051 664.906 327.192L664.891 334.43C668.812 334.449 676.049 333.966 679.585 334.796C680.955 335.911 681.188 336.838 680.413 338.286C678.369 339.286 660.332 339.924 659.826 337.565C658.232 330.139 658.765 320.037 659.511 312.408C659.613 311.355 660.862 311.086 661.676 310.732Z" fill="#F9F7F2"/>
<path d="M698.483 217.754C703.432 217.624 715.773 216.568 719.117 219.993C716.821 222.677 706.335 222.082 702.884 222.039L702.857 229.015C705.802 228.981 708.808 228.902 711.751 228.953C714.4 228.999 716.839 228.445 717.222 231.562C715.252 235.42 706.318 231.838 702.922 233.843L702.822 241.39C706.198 241.351 716.178 240.822 718.662 242.508L718.793 243.856C716.036 247.299 701.667 246.726 698.089 245.096C696.491 242.219 696.409 219.884 698.483 217.754Z" fill="#F9F7F2"/>
<path d="M850.552 542.79C856.13 542.606 865.74 541.685 870.526 544.408L870.593 545.502C866.762 547.583 859.323 547.085 854.897 547.018L854.843 553.995C859.16 553.966 864.528 553.544 868.5 554.593C869.393 555.738 869.042 555.092 869.287 556.753C866.328 560.055 857.895 557.025 854.935 558.848L854.89 566.389C857.943 566.385 867.419 565.978 870.197 567.148C870.833 567.416 870.671 567.98 870.77 568.893C867.81 572.47 853.945 571.568 850.049 570.012C847.999 565.991 849.32 549.27 849.475 544.144C849.475 544.144 850.435 542.936 850.552 542.79Z" fill="#F9F7F2"/>
<path d="M532.65 403.715C537.16 403.546 547.75 402.467 551.206 405.585L551.004 406.447C547.094 408.72 540.546 408.12 535.975 408.047L535.916 415.072C539.489 414.986 547.455 414.275 549.89 416.955L549.655 417.823C546.154 420.139 540.223 419.49 536.003 419.39L535.928 427.462C539.895 427.407 548.606 426.961 551.991 428.554L552.175 429.449C551.143 430.916 548.224 432.302 546.554 432.165C543.137 431.887 533.138 432.891 530.878 430.807C529.532 426.892 529.589 409.752 530.729 405.018C530.936 404.159 531.669 404.116 532.65 403.715Z" fill="#F9F7F2"/>
<path d="M849.279 449.868C854.294 449.531 865.516 448.71 869.621 451.601L869.614 452.392C865.874 454.654 858.329 454.113 853.903 454.046L853.811 461.009C858.135 460.989 864.682 460.202 868.1 462.799L868.028 463.609C864.657 466.035 858.106 465.41 853.941 465.332L853.881 473.418C857.546 473.381 865.205 473.177 868.509 473.763C869.831 474.857 869.388 474.19 869.881 475.837C867.53 479.577 852.943 478.343 849.199 477.157C847.431 474.898 847.451 452.576 849.279 449.868Z" fill="#F9F7F2"/>
<path d="M665.891 356.891C671.209 356.572 682.155 355.752 686.649 358.382L686.586 359.634C682.276 361.576 675.65 361.112 670.866 361.048L670.839 368.02C675.023 367.917 681.656 367.225 684.962 369.811L684.87 370.707C681.266 373.114 675.229 372.449 670.865 372.344L670.862 380.409C675.313 380.372 683.284 379.807 686.872 382.109L686.968 382.95C682.707 386.301 670.91 385.079 665.546 384.519C664.738 379.495 664.43 361.683 665.891 356.891Z" fill="#F9F7F2"/>
<path d="M479.875 403.708C484.803 403.55 496.01 402.519 499.547 405.682L499.342 406.449C495.497 408.651 488.387 408.106 483.914 408.035L483.873 415.034C488.172 414.998 494.43 414.264 497.863 416.815L497.822 417.727C494.47 420.141 488.128 419.501 483.996 419.397C483.824 421.637 483.879 425.096 483.841 427.433C488.119 427.543 496.748 426.121 499.592 429.261C499.555 431.136 499.842 430.478 498.643 431.711C494.542 432.111 482.52 432.6 479.059 431.056C477.266 427.282 478.086 415.055 478.028 410.438C477.995 407.816 477.976 405.482 479.875 403.708Z" fill="#F9F7F2"/>
<path d="M723.961 403.703L727.909 403.567C731.636 403.449 739.214 402.828 742.121 405.559L741.927 406.462C738.128 408.728 731.344 408.117 726.853 408.047L726.787 415.073C730.066 415.016 737.43 414.738 740.359 415.505C741.43 416.722 741.117 416.204 741.141 418.226C738.874 420.43 730.456 418.801 726.799 419.69L726.818 427.446C731.214 427.516 737.181 426.863 741.468 427.781C742.491 428 742.569 428.837 743.008 429.87C741.863 433.662 727.196 431.739 723.46 431.689C722.93 431.682 721.91 431.151 721.799 430.491C720.461 422.484 720.476 412.858 721.827 404.872C721.976 404.078 723.062 403.992 723.961 403.703Z" fill="#F9F7F2"/>
<path d="M345.751 694.728C349.747 694.608 349.958 694.937 353.453 696.851C354.517 696.232 354.438 695.916 355.176 694.689C356.716 694.435 355.971 694.316 357.43 695.312C359.748 699.298 359.259 714.44 355.57 718.162C350.963 722.809 344.664 720.436 340.715 716.69C340.989 715.38 340.97 715.472 341.786 714.402C346.621 713.826 353.141 722.992 353.593 711.699C352.352 710.528 349.481 713.81 346.337 712.749C337.917 709.907 338.783 698.912 345.751 694.728Z" fill="#F9F7F2"/>
<path d="M347.404 698.211C355.067 698.209 355.781 704.816 351.097 709.526C343.724 709.438 343.625 702.959 347.404 698.211Z" fill="#1E1E1E"/>
<path d="M745.697 263.967C750.702 263.498 762.701 262.67 766.814 265.72L766.548 266.583C762.492 268.651 755.539 268.126 750.921 268.046L750.818 275.055C755.183 274.956 761.298 274.294 764.896 276.704L764.972 277.575C761.696 280.127 755.026 279.461 750.881 279.37L750.882 287.461C755.004 287.352 762.922 286.528 766.202 288.51C766.962 290.107 766.898 289.371 766.305 291.229C763.066 292.832 749.782 291.868 745.693 291.673C744.608 285.868 744.627 269.804 745.697 263.967Z" fill="#F9F7F2"/>
<path d="M635.612 496.642C640.088 496.538 648.636 495.73 652.103 498.575L652.005 499.437C648.572 501.855 641.18 501.163 636.954 501.063L636.85 508.083C639.501 508.059 648.02 507.754 650.122 508.535C651.431 509.942 651.074 509.143 651.318 510.973C648.358 514.165 640.412 510.869 637.156 512.838L636.765 515.432C636.784 517.194 636.644 518.532 637.296 520.155C641.47 521.381 650.132 518.712 652.99 522.294C652.653 524.009 653 523.241 651.807 524.631C648.47 525.071 634.967 525.573 632.231 524.325C630.487 520.323 630.64 502.169 631.678 497.803C632.843 496.686 633.738 496.906 635.612 496.642Z" fill="#F9F7F2"/>
<path d="M687.253 496.664C691.664 496.541 700.752 495.661 704.13 498.562L704.005 499.447C700.636 501.856 693.009 501.191 688.813 501.119C689.008 503.472 688.783 505.718 688.623 508.072C692.038 508.047 700.707 507.426 702.972 509.184C703.341 510.987 703.471 510.313 702.686 511.79C699.566 513.071 693.27 511.59 689.277 512.752L688.844 514.014L688.823 520.448C692.315 520.471 701.466 519.874 704.243 521.121C704.919 522.744 704.756 522.117 704.501 524.007C702.433 525.589 685.734 525.637 683.6 523.669C682.768 521.013 682.605 501.693 683.746 498.095C685.222 496.567 684.678 497.045 687.253 496.664Z" fill="#F9F7F2"/>
<path d="M913.333 263.316C917.626 263.072 922.43 263.471 925.554 266.817C927.186 268.566 926.393 271.141 924.676 272.522C922.459 272.175 913.172 261.775 911.13 270.603C913.459 275.549 932.853 275.678 926.754 287.499C925.181 290.548 921.957 291.522 918.894 292.337C913.327 292.379 901.983 290.512 905.98 282.4C909.319 280.43 912.164 288.506 916.349 288.413C919.331 288.347 921.744 286.763 922.041 283.772C919.024 278.141 901.208 278.924 906.429 267.881C907.783 265.017 910.576 264.245 913.333 263.316Z" fill="#F9F7F2"/>
<path d="M598.12 449.216C599.697 449.125 601.28 449.182 602.848 449.387C607.367 449.949 613.23 455.527 608.942 458.253C605.93 457.711 597.167 448.67 594.879 456.447C597.069 460.979 611.364 461.389 611.854 468.545C612.304 475.103 606.805 477.716 601.427 478.388C595.9 478.325 588.493 476.696 589.541 468.877C589.625 468.249 589.829 468.364 590.431 467.955C593.484 468.826 595.939 472.692 599.23 473.881C602.246 474.97 605.375 473.231 606.29 470.259C604.299 465.065 591.056 465.286 589.674 458.472C588.48 452.579 593.602 450.391 598.12 449.216Z" fill="#F9F7F2"/>
<path d="M893.536 217.204C897.116 216.934 901.932 217.662 904.088 220.799C905.15 222.342 906.015 225.131 904.167 226.34C900.134 225.707 893.057 216.447 890.155 224.43C893.065 229.684 905.466 228.764 906.652 236.387C907.772 243.581 901.559 245.681 895.814 246.537C890.519 246.032 881.854 243.335 884.743 236.247C887.714 234.891 890.772 241.04 894.954 242.414C897.557 242.328 900.847 240.853 901.243 238.044C899.263 234.38 892.925 233.772 889.593 231.618C880.203 225.548 884.712 219.184 893.536 217.204Z" fill="#F9F7F2"/>
<path d="M804.371 542.243C808.881 541.92 816.671 544.345 817.023 549.456C815.901 551.021 816.172 550.554 814.121 551.432C811.346 551.077 810.425 547.557 807.637 546.567C804.765 545.548 801.803 546.549 801.026 549.612C802.563 553.321 811.197 553.777 814.107 556.388C823.055 564.42 814.739 570.856 806.067 571.486C800.875 570.873 793.344 568.136 795.841 561.556C800.253 559.437 803.832 571.773 811.11 565.575C811.907 564.105 811.874 564.03 811.746 562.308C809.315 557.102 797.321 559.069 795.89 552.02C794.564 545.49 798.989 543.469 804.371 542.243Z" fill="#F9F7F2"/>
<path d="M751.207 542.2C756.341 541.966 760.77 543.399 763.876 548.112C764.45 548.983 764.188 549.269 763.884 550.121C763.11 550.936 762.051 551.124 760.945 551.481C758.927 551 751.381 540.785 747.992 549.501C750.192 554.463 764.635 554.175 764.951 561.67C765.247 568.713 759.069 570.809 753.698 571.495C748.334 571.213 740.651 568.545 742.681 561.848C743.985 560.513 743.363 560.756 744.965 560.695C748.084 562.342 748.002 565.074 749.685 566.305C752.842 568.615 758.902 567.34 758.839 562.37C756.492 557.34 744.507 558.848 742.904 552.252C741.344 545.831 745.916 543.546 751.207 542.2Z" fill="#F9F7F2"/>
<path d="M750.124 449.214C754.265 449.165 761.61 449.307 762.19 455.993C762.296 457.214 761.989 457.434 761.142 458.209C757.987 457.839 749.16 448.671 746.883 456.439C749.082 460.983 763.356 461.385 763.853 468.547C764.308 475.096 758.8 477.716 753.43 478.386C747.423 478.287 739.991 476.206 741.618 468.508C745.608 465.713 749.578 479.835 757.889 471.53C759.783 465.426 743.282 465.651 741.836 458.974C740.427 452.466 745.28 450.473 750.124 449.214Z" fill="#F9F7F2"/>
<path d="M695.924 310.146C701.109 310.231 711.615 313.649 705.836 319.599C702.035 319.629 702.295 317.09 699.27 314.47C696.825 313.653 692.867 314.858 691.644 317.113C693.445 321.94 708.19 322.036 708.705 329.656C709.192 336.867 703.473 338.664 697.826 339.576C692.541 339.206 684.007 336.307 686.82 329.461C689.974 327.916 692.475 334.426 697.848 335.456C700.715 335.004 702.941 333.808 702.945 330.595C700.559 325.808 688.807 326.627 686.979 320.113C685.065 313.295 690.53 311.209 695.924 310.146Z" fill="#F9F7F2"/>
<path d="M919.393 542.187C923.738 541.984 931.516 543.57 931.593 548.978C930.639 550.779 931.108 550.503 929.585 551.427C926.652 551.036 919.968 541.544 915.632 549.159C917.336 553.05 925.836 553.719 928.759 556.216C937.721 563.872 930.656 570.378 921.814 571.481C916.595 571.391 908.002 568.02 910.735 561.721C912.282 560.605 911.52 560.824 913.563 561.035C916.607 562.821 916.784 566.964 919.528 567.324C921.792 567.617 924.08 567.006 925.898 565.624C926.847 564.175 926.853 563.956 926.791 562.215C924.377 557.344 912.509 559.021 910.951 552.066C909.46 545.41 914.002 543.499 919.393 542.187Z" fill="#F9F7F2"/>
<path d="M917.175 449.239C921.587 448.983 928.796 449.765 929.131 455.984C929.203 457.308 929.073 457.341 928.185 458.181C924.962 457.773 916.209 449.018 913.904 456.217C916.027 461.096 930.12 461.19 930.775 468.536C931.393 475.468 925.499 477.754 920.025 478.443C914.753 478.118 909.09 476.161 907.523 470.42C907.859 469.452 907.762 469.1 908.438 468.696C913.79 465.286 913.341 473.953 918.398 474.313C921.809 474.556 924.634 473.13 925.053 469.691C922.228 464.303 903.654 464.788 909.618 453.471C911.05 450.752 914.435 449.937 917.175 449.239Z" fill="#F9F7F2"/>
<path d="M1031.3 403.152C1035.34 403.472 1041.36 405.618 1041.94 410.263C1041.04 411.91 1041.35 411.388 1039.42 412.425C1036.12 412.205 1035.38 408.33 1032.4 407.409C1029.44 406.497 1026.86 407.677 1026.05 410.635C1028.07 415.273 1042.69 415.116 1042.81 422.749C1042.93 430.587 1036.58 432.208 1030.19 432.475C1025.22 431.721 1020.9 429.262 1019.77 423.946C1019.97 423.371 1020.08 422.64 1020.5 422.458C1026.09 419.885 1025.11 427.368 1029.62 428.193C1032.58 428.734 1036.75 427.183 1037.21 423.946C1034.39 418.913 1021.31 419.188 1020.58 411.769C1019.94 405.185 1026.12 403.686 1031.3 403.152Z" fill="#F9F7F2"/>
<path d="M993.168 356.314C996.988 356.07 1000.71 355.931 1003.65 358.775C1005.58 360.633 1007.75 363.018 1005.28 365.243C999.893 365.747 1001.37 361.477 996.934 359.923C994.733 359.152 991.644 361.359 991.141 363.604C992.815 366.966 1000.11 367.831 1003.25 369.932C1012.05 375.811 1007.25 383.885 998.312 385.362C993.688 385.331 988.573 384.63 985.471 380.335C984.224 378.609 985.095 375.88 987.041 374.833C990.586 375.751 996.066 386.975 1001.93 378.258C1002.08 372.028 987.793 372.597 985.845 366.087C984.098 360.247 988.738 357.886 993.168 356.314Z" fill="#F9F7F2"/>
<path d="M801.549 449.252C805.844 449.095 815.274 450.829 815.017 456.377C814.049 457.755 813.531 457.844 811.951 458.617C809.202 457.699 803.966 448.486 798.636 455.98C799.793 460.841 815.172 460.863 815.618 468.612C816.016 475.526 811.271 477.593 805.532 478.412C800.448 478.304 790.175 475.588 793.89 468.615C797.466 466.42 800.006 474.401 804.625 474.305C808.377 474.226 809.599 473.013 809.923 469.513C807.197 464.023 796.405 466.134 794.18 459.82C791.967 453.542 796.272 450.918 801.549 449.252Z" fill="#F9F7F2"/>
<path d="M723.026 310.154C727.897 310.164 734.234 311.417 734.298 317.545C733.537 319.231 734.032 318.781 732.556 319.479C729.601 318.719 727.899 315.504 725.111 314.448C722.683 313.528 719.71 314.83 719.035 317.439C721.377 322.615 735.493 322.029 735.873 329.713C736.231 336.958 729.834 338.91 724.37 339.506C719.197 339.15 711.024 336.121 713.878 329.552C717.417 326.956 718.924 331.641 720.544 334.254C723.756 336.595 730.077 335.344 729.904 330.3C727.258 325.004 707.244 326.152 715.271 313.731C716.907 311.2 720.294 310.624 723.026 310.154Z" fill="#F9F7F2"/>
<path d="M640.528 310.143C645.877 310.395 654.614 313.134 652.75 320.15C650.255 322.098 649.183 320.138 647.116 318.165C638.4 309.848 634.025 316.389 633.885 325.87C633.763 334.121 641.641 338.398 647.488 331.42C648.748 328.933 648.461 328.858 650.456 327.833C652.112 328.173 651.44 327.764 652.49 329.18C654.347 339.104 640.352 341.862 633.844 337.425C627.124 332.843 626.281 322.136 630.739 315.713C633.397 311.884 636.181 310.953 640.528 310.143Z" fill="#F9F7F2"/>
<path d="M666.502 403.596C666.796 403.553 667.091 403.514 667.386 403.481C672.695 402.899 680.396 403.903 682.044 410.986C682.311 412.133 681.529 413.241 680.767 414.09C676.571 414.601 676.479 409.118 672.813 408.043C658.351 403.802 659.904 436.12 675.43 425.951C676.966 423.215 677.414 421.056 680.777 421.136L681.661 422.214C683.089 430.747 671.383 434.581 665.322 431.637C653.238 425.767 654.463 408.988 666.502 403.596Z" fill="#F9F7F2"/>
<path d="M566.72 403.546C572.612 402.772 581.048 403.855 581.975 411.691C582.102 412.76 581.69 413.285 580.967 413.905C577.078 413.231 571.838 404.939 566.872 408.536C558.74 414.425 563.2 434.515 575.582 425.763C576.958 423.23 577.334 421.25 580.405 421.225L581.308 422.133C581.655 423.471 581.723 424.556 581.285 425.88C579.098 432.354 571.318 433.67 565.583 431.734C557.63 429.049 555.409 419.107 558.084 411.934C559.838 407.233 562.279 405.512 566.72 403.546Z" fill="#F9F7F2"/>
<path d="M788.588 403.578C793.342 402.922 797.236 403.195 801.008 406.513C803.149 408.398 805.831 411.147 803.236 413.635C801.051 414.079 800.699 414.31 799.299 412.379C788.16 397.011 777.983 422.599 790.389 427.643C792.577 428.533 795.496 427.205 797.348 426.146L798.543 424.075C799.778 421.911 800.118 420.928 802.729 421.149L803.605 422.238C804.296 425.95 801.891 429.877 798.45 431.244C779.357 438.829 770.918 411.476 788.588 403.578Z" fill="#F9F7F2"/>
<path d="M999.659 403.543C1006.51 402.774 1016.8 405.073 1015.04 413.99L1014.45 414.354C1010.5 414.284 1001.65 399.307 996.569 413.597C993.628 421.862 998.744 432.055 1008.38 426.044C1010.03 423.452 1010.24 421.111 1013.67 421.097L1014.58 422.024C1016.56 430.302 1004.7 434.588 998.602 431.724C986.113 425.855 987.396 409.114 999.659 403.543Z" fill="#F9F7F2"/>
<path d="M715.671 170.363C721.392 169.907 732.709 172.586 729.42 180.407C725.766 182.385 720.783 171.076 714.776 175.66C706.362 182.081 711.887 201.687 723.89 192.441C725.113 190.024 725.499 187.877 728.448 188.257L729.305 189.443C729.983 193.767 727.429 197.534 723.26 198.803C704.019 204.657 697.305 176.457 715.671 170.363Z" fill="#F9F7F2"/>
<path d="M761.276 310.158C767.002 310.332 777.985 314.796 772.826 321.042C767.868 321.785 769.432 315.322 762.816 314.684C752.561 313.696 751.887 336.209 762.723 334.793C765.647 334.411 766.137 334.086 768.151 332.002C769.037 330.181 769.359 328.944 771.095 328.017C772.833 327.989 772.095 327.705 773.367 328.932C776.155 338.434 760.847 342.074 755.247 337.705C744.749 329.516 747.425 312.931 761.276 310.158Z" fill="#F9F7F2"/>
<path d="M609.279 310.158C615.004 310.332 625.977 314.782 620.825 321.045C615.874 321.787 617.424 315.314 610.815 314.683C600.566 313.706 599.883 336.19 610.718 334.791C613.641 334.414 614.109 334.117 616.151 332.009C617.383 329.638 617.319 329.151 619.349 327.943C621.019 328.12 620.32 327.77 621.457 329.134C623.37 339.104 608.414 341.921 603.099 337.615C592.767 329.243 595.54 312.906 609.279 310.158Z" fill="#F9F7F2"/>
<path d="M936.33 403.583C940.832 403.141 944.832 402.986 948.634 405.77C950.943 407.46 953.146 411.024 951.164 413.624C947.117 413.51 941.848 405.631 937.563 408.105C928.869 413.125 932.185 434.014 945.42 426.055C947.003 423.184 947.253 421.356 950.644 421.071L951.559 421.913C954.495 433.138 933.334 436.708 928.865 426.028C924.921 416.604 927.017 408.31 936.33 403.583Z" fill="#F9F7F2"/>
<path d="M819.792 496.543C825.214 495.879 835.303 498.276 835.816 504.471C834.941 506.085 834.705 506.198 833.072 507.068C830.227 506.536 828.197 501.647 825.005 500.986C810.56 497.994 814.142 528.756 828.143 519.234C829.797 516.426 830.294 514.263 833.719 514.146L834.664 515.143C836.171 523.55 824.393 527.586 818.371 524.67C806.16 518.757 807.41 501.719 819.792 496.543Z" fill="#F9F7F2"/>
<path d="M745.047 170.424C747.83 170.154 750.45 170.152 753.16 170.965C757.113 172.151 761.219 176.376 759.442 180.74L758.188 181.114C754.104 180.171 751.502 172.983 745.618 174.585C738.084 179.42 738.635 199.956 753.028 193.466C754.764 190.664 755.569 188.006 759.184 188.033L759.947 188.886C760.569 192.787 757.637 196.98 754.072 198.298C734.906 205.386 726.927 178.124 745.047 170.424Z" fill="#F9F7F2"/>
<path d="M719.878 496.536C726.007 495.67 737.517 498.687 734.536 506.333C730.357 508.067 720.998 492.239 716.593 506.556C713.977 515.057 718.753 525.19 728.298 519.117C729.908 516.285 730.352 514.127 733.799 514.15L734.681 515.165C736.122 523.589 724.492 527.538 718.46 524.686C706.122 518.851 707.412 501.726 719.878 496.536Z" fill="#F9F7F2"/>
<path d="M215.495 687.861C217.224 687.892 217.415 687.823 218.942 688.528C219.916 692.851 219.349 704.177 219.367 709.111C219.376 711.465 219.216 712.158 217.755 713.454L216.649 713.33C213.085 709.053 213.296 713.649 206.807 713.289C206.566 713.163 206.327 713.032 206.091 712.895C196.503 707.272 202.187 687.982 214.876 697.184C214.915 693.561 215.022 691.444 215.495 687.861Z" fill="#F9F7F2"/>
<path d="M208.337 698.223C216.072 697.948 216.495 705.042 212.099 709.819C210.687 709.846 209.432 709.864 208.211 709.038C207.09 708.265 206.325 707.075 206.089 705.733C205.573 702.718 206.682 700.528 208.337 698.223Z" fill="#1E1E1E"/>
<path d="M374.335 640.478C378.731 640.159 394.694 639.334 397.448 641.561C398.195 644.938 391.178 653.011 389.364 657.856C387.04 664.065 386.684 668.681 384.75 674.748C383.252 675.508 382.45 675.61 380.841 675.475C374.294 670.903 386.666 651.068 390.388 645.878C386.116 645.837 376.865 647.193 374.038 644.135C373.583 642.42 373.751 642.246 374.335 640.478Z" fill="#F9F7F2"/>
<path d="M187.33 640.503C191.71 640.199 207.741 639.297 210.415 641.565C211.176 645.173 203.527 653.831 201.792 659.138C199.955 664.76 199.473 669.622 197.724 674.965C196.082 675.448 195.837 675.436 194.124 675.309C187.166 670.511 199.406 651.263 203.431 645.864C199.025 645.836 190.059 647.056 187.17 644.34C186.597 642.233 186.735 643.01 187.33 640.503Z" fill="#F9F7F2"/>
<path d="M803.66 193.021C805.243 188.667 809.668 170.895 813.924 169.549C816.658 171.638 815.308 175.677 814.32 178.2C812.921 181.975 811.625 185.769 810.235 189.7C801.539 214.304 796.201 185.533 792.486 177.06C791.242 174.223 791.025 172.9 792.507 170.006C794.725 170.142 795.679 170.502 796.644 172.633C799.539 179.032 801.557 186.337 803.66 193.021Z" fill="#F9F7F2"/>
<path d="M491.103 694.394C492.844 694.59 492.996 694.729 494.237 695.901C495.714 697.296 497.729 694.35 500.605 694.428C501.406 693.846 505.15 697.045 505.15 697.045C508.051 695.129 512.853 692.645 515.271 696.736C517.131 699.883 517.014 708.66 516.259 712.072C515.048 713.253 515.132 713.213 513.474 713.529L512.553 712.837C510.79 708.402 513.621 701.386 510.026 698.422C508.269 698.293 507.912 698.579 506.384 699.446C505.456 703.851 506.42 709.07 505.214 712.248C503.733 713.517 504.38 713.294 502.595 713.595C499.652 710.576 502.518 701.9 499.481 698.289C497.771 697.887 498.414 697.935 496.499 698.796C493.512 702.098 495.768 707.016 494.499 711.979C493.267 713.382 494.015 712.983 492.197 713.249C488.858 710.772 489.471 697.57 491.103 694.394Z" fill="#F9F7F2"/>
<path d="M107.101 694.389C110.09 695.019 110.497 696.912 111.552 696.43C112.529 695.751 116.712 693.711 117.743 694.69C123.029 699.707 122.653 693.776 128.137 694.531C129.293 694.69 130.33 695.327 130.994 696.286C133.141 699.38 133.021 708.675 132.255 712.082C131.039 713.242 131.004 713.322 129.402 713.543C125.844 710.542 130.173 701.815 126.002 698.406C124.248 698.301 123.91 698.57 122.395 699.455C121.383 703.822 122.342 707.122 121.429 711.772C120.434 713.025 120.378 713.276 118.917 713.637C115.219 710.182 119.52 700.17 114.075 698.266C108.018 699.781 113.091 708.673 109.712 712.982C108.053 713.441 108.816 713.524 107.335 712.847C105.433 709.796 105.437 697.55 107.101 694.389Z" fill="#F9F7F2"/>
<path d="M363.928 694.326C366.486 694.865 367.897 696.457 367.821 696.489C369.268 695.89 373.185 694.004 374.974 694.75C375.176 694.833 378.206 697.09 378.241 697.07C380.544 695.745 382.496 694.085 385.4 694.556C386.492 694.733 387.336 695.394 388.049 696.388C390.168 699.344 389.772 708.673 389.225 712.179C388.035 713.273 388.086 713.199 386.453 713.426C382.868 710.83 386.96 702.465 383.239 698.528C381.475 698.191 381.069 698.524 379.463 699.297C378.422 703.586 378.88 707.531 378.518 711.993C376.871 713.4 377.417 713.357 375.603 713.574C372.653 711.079 375.392 702.088 372.477 698.292C365.611 696.652 368.942 708.435 367.428 712.045C366.06 713.38 366.747 713.072 364.924 713.316L363.858 712.246C362.538 708.665 362.492 697.504 363.928 694.326Z" fill="#F9F7F2"/>
<path d="M265.668 639.609C267.273 639.833 267.194 639.8 268.558 640.67C269.728 643.078 270.185 668.43 268.661 672.581C267.924 674.588 267.562 674.791 265.966 675.591C261.902 674.755 262.815 669.768 262.825 666.322L262.827 650.092C259.784 652.136 256.457 655.391 252.842 653.75L252.523 652.68C253.809 649.047 258.86 646.656 261.62 644.168C262.785 643.117 264.639 640.845 265.668 639.609Z" fill="#F9F7F2"/>
<path d="M53.1436 694.916C56.4398 694.074 59.9339 695.08 62.2778 697.546C64.6217 700.013 65.4491 703.554 64.4408 706.804C63.4324 710.054 60.746 712.505 57.4178 713.211C52.4168 714.271 47.486 711.137 46.3226 706.157C45.1593 701.178 48.1906 696.182 53.1436 694.916Z" fill="#F9F7F2"/>
<path d="M53.1146 698.369C61.058 697.515 61.6252 704.426 57.7252 709.629C49.7267 710.549 49.4185 703.396 53.1146 698.369Z" fill="#1E1E1E"/>
<path d="M473.995 694.951C479.022 693.57 484.211 696.549 485.555 701.586C486.9 706.624 483.885 711.792 478.839 713.101C473.844 714.396 468.741 711.418 467.41 706.431C466.079 701.445 469.02 696.318 473.995 694.951Z" fill="#F9F7F2"/>
<path d="M474.104 698.345C482.043 697.842 482.648 704.136 478.839 709.561C470.718 710.787 470.575 703.572 474.104 698.345Z" fill="#1E1E1E"/>
<path d="M698.749 403.725C703.313 403.525 711.828 402.535 715.417 405.526L715.415 406.349C712.018 408.777 705.979 408.127 701.782 408.026L701.692 415.301C705.122 415.296 710.86 414.324 713.272 416.418C713.74 418.197 713.623 417.59 713.001 419.594L701.829 419.614C701.724 423.216 702.07 428.103 701.003 431.371C699.564 432.56 700.372 432.254 698.488 432.297C694.202 429.422 695.845 409.866 696.654 404.9C696.773 404.167 698.066 403.963 698.749 403.725Z" fill="#F9F7F2"/>
<path d="M332.394 608.992C333.263 609.173 334.536 609.877 335.025 610.514C335.692 611.609 339.498 608.925 340.279 609.325C346.695 612.612 346.379 610.154 352.105 609.272C353.428 609.068 355.04 610.939 355.272 611.492C356.95 615.49 357.322 621.776 356.108 625.917C354.915 627.273 355.47 626.84 353.692 627.443L352.71 626.876C350.741 622.643 353.522 615.958 350.221 612.897C348.217 612.826 348.768 612.907 346.734 614.093C345.519 618.411 346.504 621.858 345.65 626.23C344.278 627.379 344.911 627.128 343.195 627.473C339.584 624.196 344.035 613.98 338.728 612.848C332.525 615.074 337.975 623.369 334.362 627.272C328.754 627.119 330.568 611.274 332.394 608.992Z" fill="#F9F7F2"/>
<path d="M277.273 609.512C282.172 608.503 286.96 611.662 287.96 616.564C288.961 621.467 285.793 626.25 280.89 627.242C276 628.23 271.233 625.072 270.235 620.183C269.238 615.293 272.387 610.519 277.273 609.512Z" fill="#F9F7F2"/>
<path d="M278.338 612.199C284.868 613.767 285.006 620.133 280.294 624.198C272.859 623.56 273.181 616.217 278.338 612.199Z" fill="#1E1E1E"/>
<path d="M780.435 554.036C782.373 550.857 786.802 541.982 791.086 542.432C792.538 545.928 787.085 553.052 785.166 555.876C781.639 561.111 784.757 568.463 780.69 571.534C778.959 571.356 779.553 571.48 778.012 570.055C777.062 567.287 777.365 562.07 777.384 558.954C774.916 554.702 770.656 550.066 769.262 545.259C768.812 543.707 769.703 542.883 770.502 541.709C774.841 543.11 777.976 550.044 780.435 554.036Z" fill="#F9F7F2"/>
<path d="M768.291 448.83C772.622 449.553 776.024 457.128 778.393 460.933C780.605 457.991 783.972 450.084 787.193 449.307C789.116 449.887 788.751 449.453 789.585 450.79C789.5 454.423 785.699 459.101 783.562 462.25C779.637 467.857 782.793 475.886 778.168 478.765L777.058 478.291C774.641 475.44 775.414 469.944 775.489 466.016C772.872 461.892 768.812 456.928 767.227 452.307C766.728 450.853 767.587 449.945 768.291 448.83Z" fill="#F9F7F2"/>
<path d="M822.438 542.788C826.587 542.497 843.166 541.446 845.263 544.314C845.198 546.215 845.487 545.514 844.282 546.903C842.153 547.783 838.727 547.483 836.285 547.443L836.25 563.964C836.268 566.736 836.867 569.933 834.212 571.308C830.91 570.945 830.396 567.975 830.356 565.055C830.277 559.238 830.418 553.261 830.461 547.452C827.137 547.495 823.84 548.069 821.554 545.91C821.442 544.003 821.408 544.677 822.438 542.788Z" fill="#F9F7F2"/>
<path d="M669.331 217.754C673.545 217.535 689.858 216.629 692.139 219.032C692.246 221.066 692.514 220.446 691.468 221.773C689.283 222.781 685.778 222.456 683.258 222.413L683.217 238.743C683.236 239.571 683.246 240.4 683.246 241.229C683.242 243.382 683.365 244.575 681.849 246.092C680.405 246.579 680.263 246.434 678.734 245.932C676.637 243.318 677.42 226.938 677.449 222.416C674.402 222.456 670.734 223.119 668.599 220.843C668.4 219.319 668.578 219.189 669.331 217.754Z" fill="#F9F7F2"/>
<path d="M764.787 170.878C769.576 170.571 785.192 169.475 788.244 172.367C788.434 174.007 788.625 173.284 787.667 174.613C785.449 175.637 781.836 175.484 779.271 175.551L779.27 191.933C779.321 194.369 779.56 196.813 778.189 198.774C776.443 199.668 777.179 199.597 775.397 199.262C772.217 195.943 773.418 180.725 773.487 175.548C770.834 175.435 767.254 175.727 765.187 174.576C764.204 172.743 764.504 173.341 764.787 170.878Z" fill="#F9F7F2"/>
<path d="M895.844 356.775C900.728 356.667 914.354 356.011 918.344 357.142C919.422 358.683 919.146 357.975 919.28 359.821L918.337 360.836C916.185 361.716 912.764 361.46 910.332 361.441L910.275 377.185C910.261 380.94 911.14 383.209 907.994 385.458C902.577 385.534 904.448 365.704 904.499 361.482C901.772 361.496 898.145 361.924 896.045 360.408C895.239 358.607 895.519 359.07 895.844 356.775Z" fill="#F9F7F2"/>
<path d="M796.332 217.734C802.441 217.543 808.792 217.397 814.909 217.58C816.912 217.64 818.265 217.707 819.228 219.529C818.972 221.369 819.321 220.726 818.041 221.96C815.835 222.75 812.791 222.458 810.359 222.396C810.134 228.031 810.266 234.451 810.258 240.146C810.204 242.862 810.678 244.732 808.274 246.34C806.446 246.41 807.242 246.666 805.8 245.556C803.586 241.251 804.469 228.097 804.523 222.439C803.506 222.452 802.49 222.457 801.473 222.456C798.702 222.453 797.412 222.721 795.542 220.847C795.341 219.309 795.538 219.171 796.332 217.734Z" fill="#F9F7F2"/>
<path d="M842.533 310.751C848.548 310.523 857.498 310.122 863.487 310.904C864.697 311.062 864.717 311.58 865.215 312.482C865.148 314.301 865.434 313.701 864.327 314.871C862.255 315.739 858.58 315.444 856.202 315.399L856.203 332.491C856.268 335.501 856.821 337.184 854.498 339.236C852.658 339.545 853.301 339.717 851.972 338.825C849.53 334.737 850.435 321.082 850.5 315.414C847.654 315.446 843.097 316.03 841.367 313.632C841.502 312.064 841.538 312.024 842.533 310.751Z" fill="#F9F7F2"/>
<path d="M819.982 449.789C824.634 449.621 840.598 448.347 843.36 451.553C843.365 453.19 843.603 452.455 842.508 453.79C840.218 454.755 836.862 454.47 834.287 454.437C834.11 459.54 834.224 465.323 834.206 470.479L834.225 471.256C834.276 473.756 834.649 476.166 832.943 477.938C831.38 478.505 831.264 478.389 829.59 477.876C827.782 475.735 828.474 458.082 828.477 454.483C825.658 454.499 822.37 454.91 820.123 453.481C819.31 451.559 819.554 452.186 819.982 449.789Z" fill="#F9F7F2"/>
<path d="M587.951 403.681C592.54 403.561 607.448 402.305 610.165 405.157C610.16 407.101 610.432 406.365 609.231 407.839C607.153 408.748 603.631 408.418 601.244 408.353L601.182 425.813C601.126 428.495 601.711 433.118 597.591 432.594C594.374 428.995 595.487 413.758 595.544 408.352C592.39 408.439 587.786 409.052 586.027 406.094C586.561 404.664 586.688 404.64 587.951 403.681Z" fill="#F9F7F2"/>
<path d="M742.865 496.666C746.375 496.602 761.09 495.747 763.12 497.864C763.154 499.998 763.437 499.244 762.264 500.837C760.247 501.787 756.617 501.428 754.255 501.357C754.155 507.738 754.213 514.285 754.194 520.681C754.143 523.581 754.364 524.051 751.914 525.744C746.825 525.607 748.477 505.492 748.515 501.382C746.165 501.433 742.592 501.742 740.558 500.846C739.308 499.294 739.602 500.067 739.635 497.812C740.885 496.635 740.792 496.994 742.865 496.666Z" fill="#F9F7F2"/>
<path d="M399.728 694.716C402.963 694.674 406.161 694.298 408.723 696.349C410.347 699.687 411.123 708.688 410.655 712.461L409.557 713.292C407.45 713.097 408.122 713.166 406.205 711.334C401.096 711.048 401.986 715.879 394.547 711.753C389.695 701.38 403.626 704.171 405.57 699.799L404.873 698.69C400.555 697.011 397.881 701.104 394.47 700.675C394.195 698.864 394.358 699.278 395.08 697.317C396.553 695.717 397.723 695.456 399.728 694.716Z" fill="#F9F7F2"/>
<path d="M404.682 704.436C405.366 704.503 405.021 704.405 405.65 705.106C405.593 707.053 405.61 707.351 404.55 708.964C402.802 710.311 401.691 710.318 399.552 710.649C398.207 708.978 397.883 708.444 398.772 706.455C400.571 705.106 402.445 704.925 404.682 704.436Z" fill="#1E1E1E"/>
<path d="M143.435 694.737C147.024 694.662 149.914 694.243 152.834 696.431C154.285 699.358 155.054 709.339 154.592 712.667L153.526 713.44C151.723 713.273 151.814 712.804 150.278 711.253C144.979 711.398 145.43 715.823 138.527 711.703C133.464 701.729 147.922 703.987 149.476 699.678C146.288 695.178 141.784 701.726 138.489 700.673C138.193 699.231 138.402 698.983 138.913 697.529C140.322 695.862 141.456 695.561 143.435 694.737Z" fill="#F9F7F2"/>
<path d="M148.766 704.467C149.738 704.708 149.269 704.525 150.07 705.666C149.079 709.216 147.142 710.167 143.762 710.78C142.306 709.11 141.913 708.53 142.794 706.446C144.628 705.066 146.477 704.93 148.766 704.467Z" fill="#1E1E1E"/>
<path d="M651.331 448.881C652.25 449.019 653.815 449.182 654.358 449.875C657.005 453.252 655.81 468.96 655.778 473.295C660.007 473.244 667.095 472.354 669.975 474.737C670.102 476.72 670.185 475.97 669.107 477.883C665.339 478.016 653.134 479.224 650.695 476.503C649.447 472.186 649.156 452.86 651.331 448.881Z" fill="#F9F7F2"/>
<path d="M932.697 310.353C935.179 310.222 935.35 310.179 936.841 311.414C938.741 315.207 937.798 329.335 937.743 334.244C941.544 334.191 949.246 333.321 951.727 335.585C952.278 336.975 952.066 337.233 951.629 338.766C949.204 338.973 933.086 339.948 932.665 337.559C931.687 332.001 931.106 315.215 932.697 310.353Z" fill="#F9F7F2"/>
<path d="M505.673 403.332C508.175 403.322 508.248 403.094 509.799 404.395C511.764 408.506 510.808 421.991 510.768 427.24C514.952 427.336 521.052 426.209 524.381 428.182C525.397 430.032 525.126 429.32 524.737 431.837C520.419 431.962 509.445 432.715 506.132 431.157C504.061 427.432 504.651 407.455 505.673 403.332Z" fill="#F9F7F2"/>
<path d="M658.78 496.252C661.376 496.345 660.979 495.939 662.757 497.277C664.823 501.521 663.823 514.835 663.783 520.231C667.986 520.324 674.458 519.118 677.567 521.38C678.34 523.25 678.136 522.575 677.679 524.87C665.475 524.93 656.163 529.595 657.901 513.349C658.47 508.037 657.022 501.747 658.78 496.252Z" fill="#F9F7F2"/>
<path d="M619.439 541.914C621.235 542.221 621.496 542.154 622.794 543.309C624.557 546.823 623.751 561.421 623.776 566.271C627.53 566.192 636.008 565.28 638.301 568.198C637.979 570.004 638.202 569.355 636.882 570.854C632.839 571.091 622.413 571.62 619.179 570.203C617.152 567.377 617.342 545.143 619.439 541.914Z" fill="#F9F7F2"/>
<path d="M871.891 496.17C874.296 496.394 874.234 495.99 875.836 497.396C877.774 501.771 876.499 514.28 876.816 520.226C881.193 520.377 886.957 519.172 890.422 521.22C891.357 522.967 891.057 522.434 890.693 524.844C886.703 524.945 874.962 525.705 872.033 524.167C870.386 520.371 870.535 499.847 871.891 496.17Z" fill="#F9F7F2"/>
<path d="M230.498 694.714C235.828 694.657 242.407 697.13 241.284 703.477C238.501 706.205 233.67 704.381 229.18 705.412C228.029 706.811 228.377 706.029 228.141 707.859C231.101 711.321 235.143 710.176 238.153 707.511C239.84 707.16 239.124 706.998 240.419 707.636L240.563 708.864C237.545 715.634 226.987 715.022 224.228 707.932C223.158 705.209 223.246 702.168 224.474 699.512C225.866 696.476 227.635 695.676 230.498 694.714Z" fill="#F9F7F2"/>
<path d="M230.761 697.771C231.063 697.789 231.364 697.807 231.666 697.825L232.065 697.864C234.371 698.074 235.748 699.179 236.61 701.31L236.236 702.169L234.801 702.622C232.549 702.676 230.263 703.039 228.664 701.651C228.709 699.923 229.63 699.166 230.761 697.771Z" fill="#1E1E1E"/>
<path d="M367.35 609.352C379.164 608.551 378.631 616.648 377.79 626.255C377.718 627.083 376.911 627.243 376.261 627.523C374.969 626.905 374.583 626.528 373.455 625.621C368.555 625.219 368.844 630.082 362.045 625.37C358.928 616.27 369.573 618.628 372.889 614.377L372.393 613.339C368.156 610.771 366.151 615.726 362.69 615.298C362.133 613.386 362.157 614.205 362.781 612.143C364.042 610.506 365.458 610.13 367.35 609.352Z" fill="#F9F7F2"/>
<path d="M371.068 619.002C372.043 618.714 372.091 618.829 373.11 619.047C373.988 622.156 370.815 624.127 368.374 625.16C366.568 623.76 365.483 623.22 366.325 620.904C367.94 619.473 368.949 619.461 371.068 619.002Z" fill="#1E1E1E"/>
<path d="M69.6357 687.832C78.1909 688.281 70.8569 693.903 74.4442 696.531C74.9681 696.209 75.5009 695.901 76.0419 695.608C88.2809 689.058 87.7341 711.925 82.8812 713.431C80.5363 711.277 81.0573 707.675 81.1233 704.736C81.1692 702.068 81.3738 700.457 79.5005 698.488C77.8623 698.143 77.8104 698.139 76.2332 698.607C71.9686 702.469 75.7989 712.232 71.5105 713.47L69.9441 712.568C68.7276 710.506 69.321 691.196 69.6357 687.832Z" fill="#F9F7F2"/>
<path d="M165.598 609.295C170.335 609.475 176.944 612.216 175.553 617.861C172.077 621.221 165.635 617.443 163.162 620.672C163.259 623.042 164.443 623.631 166.691 624.033C169.679 624.566 171.557 622.69 173.732 620.946C174.435 621.543 175.324 622.74 174.778 623.539C168.16 633.213 154.916 624.249 159.211 614.193C160.466 611.256 162.73 610.216 165.598 609.295Z" fill="#F9F7F2"/>
<path d="M165.285 612.359C167.749 612.408 171.224 613.157 170.834 616.305L169.803 616.996C167.456 617.053 165.059 617.471 163.473 615.987C163.458 614.417 164.3 613.666 165.285 612.359Z" fill="#1E1E1E"/>
<path d="M293.572 602.645C295.148 602.71 295.349 602.645 296.719 603.333C298.297 605.619 297.711 608.62 297.621 611.628C311.897 601.975 311.09 625.432 306.29 627.213C303.984 625.262 304.524 621.066 304.583 618.241C304.605 616.291 304.708 615.728 303.89 613.987C302.536 612.728 302.479 612.587 300.743 612.164C296.268 613.909 299.115 623.471 296.147 627.236C294.626 627.463 295.252 627.568 293.759 626.545C292.754 623.849 293.212 606.05 293.572 602.645Z" fill="#F9F7F2"/>
<path d="M246.821 694.344C248.604 694.468 249.172 694.94 250.387 696.176C252.094 697.913 254.947 693.31 258.197 694.575C259.918 695.1 261.227 696.321 261.981 697.975C263.505 701.317 263.886 711.622 259.98 713.298C257.505 711.41 258.019 707.084 258.059 704.201C258.039 702.211 258.127 701.424 257.38 699.557C256.049 698.33 255.856 698.104 254.095 697.778C249.188 699.738 252.393 710.282 249.107 713.576C247.669 713.44 248.111 713.471 246.79 712.32C245.826 709.595 246.145 697.544 246.821 694.344Z" fill="#F9F7F2"/>
<path d="M160.191 694.414C162.536 694.869 161.655 694.415 163.461 696.43C166.183 696.601 167.449 694.547 169.347 694.479C177.949 694.17 177.137 708.839 173.598 713.434L171.893 713.241C170.834 710.479 171.102 705.902 171.144 702.845C170.699 700.508 171.017 700.275 169.596 698.57C161.396 696.595 165.185 708.848 162.597 713.188L161.517 713.443C160.703 712.918 159.752 712.553 159.639 711.779C159.064 707.831 158.576 697.824 160.191 694.414Z" fill="#F9F7F2"/>
<path d="M181.168 694.406C183.564 695 182.848 694.471 184.07 696.219C187.389 697.211 188.233 694.157 191.477 694.442C198.514 695.06 198.431 710.16 194.253 713.162L193.321 712.653C191.654 709.616 192.035 706.794 192.116 703.338C192.013 701.878 191.831 701.103 191.519 699.664C190.185 698.206 190.839 698.644 188.667 698.235C182.392 700.319 186.42 708.577 183.556 713.189L182.431 713.409C181.629 712.919 180.551 712.494 180.489 711.555C180.244 707.786 179.61 697.491 181.168 694.406Z" fill="#F9F7F2"/>
<path d="M902.01 408.015C903.813 407.953 905.263 407.627 906.616 408.644C907.534 410.252 907.137 413.459 907.061 415.476C910.099 415.356 914.508 414.447 914.61 418.627C912.63 421.479 910.4 420.689 907.115 420.556L907.053 428.072C905.276 428.092 903.99 428.327 902.52 427.43C901.454 425.708 901.879 422.779 901.962 420.568C898.351 420.699 896.947 421.441 894.566 418.609C894.594 416.903 894.419 417.557 895.721 416.031C897.666 415.007 899.723 415.371 902.009 415.462L902.01 408.015Z" fill="#F9F7F2"/>
<path d="M383.914 608.924L385.686 609.387C389.217 613.382 389.592 608.76 394.211 609.288C401.348 610.103 400.424 624.722 396.327 627.812L395.278 626.89C394.417 623.909 394.61 620.813 394.625 617.703C394.258 614.558 393.928 612.207 389.864 612.614C385.987 615.944 389.473 626.325 385.34 627.469L383.899 626.597C382.442 623.619 382.88 612.363 383.914 608.924Z" fill="#F9F7F2"/>
<path d="M405.741 608.939C407.571 609.271 407.976 609.658 409.302 610.945C412.164 611.342 413.136 609.138 415.351 609.16C423.389 609.239 422.405 623.749 418.69 627.486L417.775 627.467C416.257 625.249 416.574 620.464 416.592 617.702C416.462 615.706 416.616 614.977 415.333 613.468C413.804 612.663 413.557 612.363 411.966 612.648C407.856 615.834 411.584 625.702 407.517 627.432L405.987 626.716C404.374 623.856 405.191 612.455 405.741 608.939Z" fill="#F9F7F2"/>
<path d="M181.833 608.855C183.583 609.693 182.998 609.319 184.149 611.193C186.326 611.54 188.497 608.949 190.858 609.098C198.143 609.557 197.545 624.984 193.289 627.834L192.351 627.058C191.371 623.64 191.586 620.693 191.623 617.164C191.406 614.834 191.194 614.07 189.172 612.811C182.358 612.178 185.635 621.789 184.311 626.063C183.001 627.306 183.74 626.991 182.119 627.241L181.067 626.325C179.519 622.763 179.192 611.758 181.833 608.855Z" fill="#F9F7F2"/>
<path d="M265.922 695.327C269.704 695.109 278.819 693.604 280.883 697.113C280.481 700.546 274.108 706.531 271.438 709.402C274.597 709.3 280.292 708.439 282.461 710.746L282.317 712.932C279.035 712.989 269.604 713.735 266.773 711.874C266.158 711.47 266.335 711.035 266.251 710.101C267.654 706.779 273.07 701.314 275.682 698.426C271.379 698.324 266.503 700.284 265.922 695.327Z" fill="#F9F7F2"/>
<path d="M453.299 694.716C457.014 694.629 461.26 694.891 463.512 698.363C463.705 700.487 463.854 699.643 462.959 701.565C459.523 702.384 458.585 697.162 453.522 698.823C451.006 701.297 449.772 705.628 452.543 708.366C453.511 709.335 454.857 709.829 456.222 709.716C458.32 709.551 459.211 708.275 460.481 706.763C461.284 705.768 460.78 706.137 462.139 705.768L463.287 706.613C465.072 712.327 455.861 714.735 452.266 713.016C443.657 708.9 444.786 698.398 453.299 694.716Z" fill="#F9F7F2"/>
<path d="M250.47 602.543C251.43 602.637 252.101 602.868 253.017 603.132C255.568 606.174 254.414 618.823 254.252 622.976C258.074 623.146 262.018 622.311 265.435 623.555C266.685 624.968 266.292 624.494 266.373 626.889C260.651 626.979 255.524 627.066 249.819 626.746C249.451 622.379 248.807 605.905 250.47 602.543Z" fill="#F9F7F2"/>
<path d="M798.272 496.164C799.617 496.19 802.494 496.104 802.643 497.953C803.069 503.243 804.099 521.566 801.933 525.502C800.732 525.488 797.908 525.38 797.779 523.837C797.311 518.233 796.38 500.752 798.272 496.164Z" fill="#F9F7F2"/>
<path d="M645.198 403.221C646.411 403.221 649.458 403.178 649.61 404.828C650.082 409.958 650.959 428.466 649.124 432.428C647.922 432.438 644.894 432.484 644.78 430.856C644.384 425.177 643.387 407.908 645.198 403.221Z" fill="#F9F7F2"/>
<path d="M811.196 403.205C812.423 403.217 815.46 403.199 815.608 404.859C816.102 410.407 816.98 428.055 815.051 432.527C812.043 432.43 810.584 432.271 810.439 428.828C810.268 424.796 810.205 420.497 810.306 416.448C810.394 412.923 809.985 406.303 811.196 403.205Z" fill="#F9F7F2"/>
<path d="M200.871 609.919C204.584 609.75 212.806 608.578 215.241 611.404C215.288 614.494 208.719 620.917 206.324 623.641C208.895 623.492 213.782 622.947 216.059 624.033C217.046 624.503 216.994 625.446 217.286 626.621C215.636 627.002 204.668 627.751 202.7 626.979C201.347 626.449 201.573 626.27 201.115 625.144C201.863 621.401 207.584 616.003 210.34 613.018C205.976 612.893 201.995 614.747 200.871 609.919Z" fill="#F9F7F2"/>
<path d="M91.1258 694.379C93.8272 694.919 92.7944 694.456 95.024 696.389C97.9488 694.671 100.726 693.343 102.882 697.012C102.013 698.382 98.4839 699.101 96.7194 699.602C95.1802 701.343 95.5987 701.131 95.0582 703.663C95.1344 707.475 95.5753 710.133 93.425 713.319L92.522 713.365C89.243 710.092 89.7031 698.421 91.1258 694.379Z" fill="#F9F7F2"/>
<path d="M426.671 687.898C428.129 687.957 429.353 687.824 430.505 688.686C431.382 692.305 431.276 709.764 430.409 713.516C428.724 713.404 428.645 713.411 427.142 712.696C425.647 710.538 426.452 691.485 426.671 687.898Z" fill="#F9F7F2"/>
<path d="M296.804 687.863C298.62 687.915 298.795 687.871 300.456 688.511C301.429 691.259 301.23 710.355 300.425 713.467C299.643 713.446 297.111 713.291 296.976 712.398C295.973 705.738 295.958 694.463 296.804 687.863Z" fill="#F9F7F2"/>
<path d="M37.6252 687.986C39.1973 687.975 39.5366 688.035 41.0907 688.336C42.7349 690.81 41.9717 709.306 41.7266 713.169C40.3326 713.315 40.071 713.248 38.6661 713.046C36.3803 710.447 37.5238 692.74 37.6252 687.986Z" fill="#F9F7F2"/>
<path d="M232.841 602.484C233.868 602.629 236.225 602.943 236.356 604.096C236.925 609.094 237.689 623.426 235.875 627.637C233.87 627.287 234.506 627.661 233.053 626.412C231.453 622.112 232.044 607.226 232.841 602.484Z" fill="#F9F7F2"/>
<path d="M315.543 608.885C317.124 609.284 317.423 609.602 318.596 610.735C321.759 609.343 323.778 608.594 326.435 611.549C325.546 612.836 322.07 613.563 320.316 614.084C318.923 615.742 319.37 615.125 318.922 617.703C318.838 620.672 319.36 625.362 316.586 626.924C312.973 624.089 313.368 612.279 315.543 608.885Z" fill="#F9F7F2"/>
<path d="M417.081 694.412L419.245 694.821C422.397 697.396 421.751 710.355 420.095 713.615C417.929 713.206 418.578 713.619 417.061 712.26C415.456 708.644 415.982 698.197 417.081 694.412Z" fill="#F9F7F2"/>
<path d="M287.034 694.461C293.251 694.847 290.935 702.443 291.23 706.99C291.346 708.783 290.931 711.909 290.166 713.55C288.52 713.394 288.403 713.44 287.181 712.43C285.41 708.761 285.992 698.323 287.034 694.461Z" fill="#F9F7F2"/>
<path d="M222.111 609.225C223.587 609.385 223.524 609.35 224.818 610.059C226.358 612.971 226.499 625.054 224.608 627.707C223.381 627.463 222.187 627.118 221.791 625.825C220.75 622.422 220.673 612.137 222.111 609.225Z" fill="#F9F7F2"/>
<path d="M437.811 708.971C438.836 708.106 440.362 708.207 441.265 709.2C442.167 710.193 442.123 711.722 441.164 712.661C440.512 713.3 439.562 713.531 438.69 713.263C437.817 712.996 437.159 712.273 436.976 711.378C436.793 710.483 437.113 709.56 437.811 708.971Z" fill="#F9F7F2"/>
<path d="M417.319 688.484C417.989 687.958 418.897 687.852 419.669 688.209C420.442 688.567 420.949 689.327 420.981 690.178C421.014 691.029 420.567 691.826 419.824 692.242C418.792 692.819 417.49 692.505 416.834 691.521C416.178 690.537 416.39 689.214 417.319 688.484Z" fill="#F9F7F2"/>
<path d="M287.335 688.471C288.004 687.956 288.906 687.859 289.669 688.22C290.433 688.582 290.93 689.34 290.956 690.185C290.983 691.029 290.534 691.817 289.795 692.226C288.765 692.795 287.47 692.474 286.825 691.489C286.18 690.504 286.402 689.189 287.335 688.471Z" fill="#F9F7F2"/>
<path d="M608.648 108.984C613.278 109.022 618.087 108.912 622.65 109.596C621.127 110.029 612.572 110.718 610.849 110.676L611.46 110.077L611.391 109.562L608.648 108.984Z" fill="#6B423C"/>
<path d="M600.738 654.785C603.667 654.388 605.582 654.352 608.554 654.312L609.608 655.466C606.767 655.566 603.594 655.109 600.738 654.785Z" fill="#6B423C"/>
</g>
<defs>
<clipPath id="clip0_2528_273">
<rect width="1100" height="750" fill="white"/>
</clipPath>
</defs>
</svg>
